<?xml version="1.0" encoding="UTF-8"?>
<svg xmlns="http://www.w3.org/2000/svg" version="1.1" xmlns:xlink="http://www.w3.org/1999/xlink" viewBox="0 0 640 960">
  <!-- Generator: Adobe Illustrator 29.6.0, SVG Export Plug-In . SVG Version: 2.1.1 Build 207)  -->
  <defs>
    <style>
      .st0 {
        fill: none;
        stroke-miterlimit: 10;
      }

      .st0, .st1 {
        stroke: #727272;
        stroke-linecap: round;
        stroke-width: 12px;
      }

      .st2 {
        fill: #727272;
      }

      .st3 {
        display: none;
      }

      .st4 {
        opacity: .4;
      }

      .st1 {
        fill: #fff;
        stroke-linejoin: round;
      }
    </style>
  </defs>
  <g id="_レイヤー_2" data-name="レイヤー_2">
    <path class="st1" d="M195.4,706.7s-2.4,41.8-44.2,17.9-87.2-92-109.9-141-16.7-91.4-6-113.5,63.9-102.8,95.6-119.5l31.7-16.7s-10.8-35.3,4.2-53.8,22.1-27.5,39.4-27.5,31.7,5.4,34.7,22.7,8.4,29.9,8.4,29.9c0,0,23.3-1.8,44.2,3.6s40.6,6,40.6,6c0,0,72.3-69.9,87.2-66.9s46.6,28.1,28.7,76.5-49.6,65.1-57.4,68.1l6,44.2s25.1-29.3,41.8-31.1,19.1-8.4,23.9,6,6.6,90.2,0,111.1,36.4-1.2,52.6-8.4,50.2-46.6,59.8-58.6,20.9-23.3,26.3-14.3,5.4,102.8-37,156.5-60.9,52-63.3,63.3,12.5,32.9,1.2,59.8-25.1,62.7-50.2,68.1-30.5-10.8-47.8-8.4-55.6,13.1-102.8-9.6-107.6-64.5-107.6-64.5Z"/>
    <path class="st1" d="M464.3,522.7s-14.9,11.1-31.7,13.7-24.2,1.5-46-4.2-27.5-21.5-27.5-21.5c0,0-2.7-2.1-6-13.1s7.8-23,13.7-27.5,30.5-25.1,30.5-25.1l8.4-16.1"/>
    <path class="st1" d="M432.6,536.4s-7.8,27.5-6.6,54.4,12.5,53.2,38.2,70.5,38.2,0,38.2,0l13.4-13.4"/>
    <path class="st2" d="M242.8,572.5s9-1.8,14.3-5.2,7-9.4,19.1-8.8,13.9,4.1,16.3,7,5,11,6.8,12.2,3.2,3.2,3.2,3.2c0,0-6.8,0-10.8,3.6s-9.4,11.4-16.7,11.2-13.5-.6-17.9-8.8-14.3-14.3-14.3-14.3Z"/>
    <path class="st1" d="M128.5,513.1s0,84.8,14.9,117.7,52,75.9,52,75.9"/>
    <path class="st2" d="M372.3,741.4s-10.8,5.2-14.7-2.8,5.2-19.1,11.6-22.7,9.6-9.8,13.9-9.2,3.8,6.2,11.6,6.8,21.1-.6,23.5,8.4,3,21.4-1.6,21.2-9.8-7.8-16.3-7.6-27.9,6-27.9,6Z"/>
    <path class="st2" d="M490.3,720.2s-12.4-5.2-12.2-10.2,11.4-22.4,16.7-24.8,12.2,2.8,12.2,2.8l-4.7,28.9s-.7,4.5-4.2,4.8-7.8-1.5-7.8-1.5Z"/>
    <path class="st0" d="M253.6,712.7s41.2,38.1,54.6,48.7c26.4,20.9,58.4,27.5,66.4,23.9"/>
    <path class="st0" d="M464.3,661.3s-19.3-7.5-38.4-7.5-37.7,15.2-37.7,15.2"/>
    <path class="st0" d="M373.7,351.8s20.2-23.3,26.9-47.5,9.6-52.9,9.6-52.9"/>
    <path class="st0" d="M166.7,280.1s11.1,49,18.5,62.1,11.4,22.7,19.1,29.3"/>
    <path class="st0" d="M179.9,398.4s-9-22.7-13.1-37-4.2-27.5-4.2-27.5"/>
    <path class="st2" d="M435.9,629.5s59.5-20.2,91.7-52.4,65-136.1,65-136.1c0,0,8.1-12.4,10.3.5s12.9,106.6-37,156.5-58.6,78.7-80.1,71-49.9-39.5-49.9-39.5Z"/>
    <path class="st2" d="M386.6,532.3s33.6-4.3,47.3-24.9,30.4-95.8,30.4-95.8c0,0,9.9,33.6,6.6,60.3s-1.9,56.2-20.1,60.3-64.2,0-64.2,0Z"/>
  </g>
  <g id="_レイヤー_1" data-name="レイヤー_1" class="st3">
    <image class="st4" width="640" height="960" xlink:href="../../../../../../../Downloads/サイの白黒シンプルな画像.jpg"/>
  </g>
</svg>