<?xml version="1.0" encoding="UTF-8"?>
<svg id="_レイヤー_1" data-name="レイヤー_1" xmlns="http://www.w3.org/2000/svg" version="1.1" xmlns:xlink="http://www.w3.org/1999/xlink" viewBox="0 0 640 960">
  <!-- Generator: Adobe Illustrator 29.9.0, SVG Export Plug-In . SVG Version: 2.1.1 Build 14)  -->
  <defs>
    <style>
      .st0 {
        fill: #727271;
      }

      .st1 {
        isolation: isolate;
        opacity: .4;
      }

      .st2 {
        fill: #717171;
      }

      .st3 {
        fill: #727171;
      }

      .st4 {
        display: none;
      }

      .st5 {
        fill: #fefefe;
      }

      .st6 {
        fill: #fdfefe;
      }
    </style>
  </defs>
  <g id="_生成オブジェクト" data-name="生成オブジェクト">
    <path class="st2" d="M308.8,172.7c70.4-4.5,182.3,32.2,210.4,103.2,20.2,51.1,2.1,101-22.2,146.4-1.7,3.2-12.3,17.4-12.6,18.5-4.4,16.5,1,51.5-4.4,75.4-8,35.1-34.1,70.8-41.4,103.5-4.5,20.3-.8,44.1-6.7,65.8-11.5,43-35.1,41.2-67.7,59.5-25.5,14.4-42.1,34-74.7,32.5-27.6-1.3-107.8-52.4-122.4-76.6-33.3-55,9-84.2-2.2-130.9s-13.2-28.7-16.3-44.4c-5.4-27.4,1.4-123.3,8.1-151.6,1.4-5.8,12.5-34.3,11.8-37-1.6-1.6-4.4-3.7-6.3-4.8-16.8-9.5-27.4-10.6-41.8-27.7-46.7-55.4,10.3-87.9,63.2-78,32.3-28.7,81.5-51.2,125-54ZM320.7,183.7c-42.5.6-87.2,19.9-120.6,45.1-.5,2.8,28.7,6,31.8,7.4s5.7,10.4,0,11.8c-6.4,1.6-56-12.9-58.1-10,14.8,17.5,12,41.9,28.5,58.1,4.5,4.5,15.5,8.1,13.7,15.2-3.3,13.2-25.3-9.2-28.8-14.1-10.1-13.8-9.6-30.5-17.8-43.6s-11.3-10.3-14.4-17.4c-10.8,2-38.1,13.1-39.6,24.8-3.5,27.1,31.5,53.6,53.6,62.5s29.4,6.5,30.7,12.9c2.1,10.3-10.1,5.9-10.4,6.7s3.4,6.8-.4,9.2c-5.6,3.7-10.2-3.8-11.5-2.6-16.5,37.2-13.1,75.4-15.5,114.6-.9,14.2-9.9,26.3,6.3,35.1,1,.6,6.1.5,6.7.7,10.6,5.8,19,24.2,24.8,34.4l-1.1,1.8c-5.2-5.7-11.9-2-17.8-5.2s-6.6-13.5-9.2-18.9-11-10.8-13.3-7.4,3.5,23.5,4.4,26.6c4.9,16.7,15.6,30.9,17,49.6,3.1,40.9-29,64.1-3.7,109.5,7.6,13.6,5.5,4.1,14.4,2.6s42.1,12.8,38.8,24.8c-2.5,9.4-27.8-4.2-28.8-2.2,8.7,6.1,18.2,16.5,27,21.8,1.6,1,6.8,1,8.9,2.2,60.9,36.1,56.7,33,115.4-1.5,10.8-6.4,22.7-11.5,33.7-17.4-.1-4.2-33.4,9.2-34.8-2.2-1.2-10,27.6-19.4,35.1-18.9s15,6.1,17.8,11.8c11.3-11.5,17.2-28.3,19.6-44s0-36.7,4.4-54c7.9-31.3,30.6-63,39.2-94.7,12.2-45,3.3-82.5,0-126.5-.7-8.9.3-24.2,11.8-14.1-.3,14.1,3.4,28.1,4.8,41.8,26.7-44.6,45.2-94.9,21.8-145.3-27-58.1-124.3-92.3-184.5-91.3Z"/>
    <path class="st6" d="M320.7,183.7c60.2-.9,157.6,33.3,184.5,91.3,23.4,50.4,4.9,100.7-21.8,145.3-1.4-13.7-5.1-27.7-4.8-41.8-11.5-10.2-12.5,5.2-11.8,14.1,3.3,44,12.2,81.5,0,126.5-8.6,31.7-31.3,63.4-39.2,94.7-4.4,17.3-1.7,36.2-4.4,54s-8.3,32.5-19.6,44c-2.7-5.8-11.5-11.4-17.8-11.8s-36.3,8.9-35.1,18.9c1.4,11.5,34.6-1.9,34.8,2.2-10.9,5.9-22.8,11-33.7,17.4-58.6,34.5-54.5,37.6-115.4,1.5-2.1-1.2-7.2-1.2-8.9-2.2-8.8-5.3-18.3-15.8-27-21.8,1-2,26.3,11.6,28.8,2.2,3.2-11.9-29.4-26.3-38.8-24.8s-6.9,11-14.4-2.6c-25.3-45.4,6.8-68.6,3.7-109.5-1.4-18.6-12.1-32.9-17-49.6-.9-3.2-5.2-25.5-4.4-26.6,2.3-3.4,12,4.7,13.3,7.4,2.7,5.3,1.5,14.7,9.2,18.9s12.5-.6,17.8,5.2l1.1-1.8c-5.8-10.2-14.2-28.6-24.8-34.4s-5.6-.2-6.7-.7c-16.1-8.8-7.2-21-6.3-35.1,2.5-39.2-.9-77.5,15.5-114.6,1.3-1.2,5.9,6.2,11.5,2.6s.2-8.8.4-9.2c.3-.7,12.5,3.7,10.4-6.7s-24.8-10.6-30.7-12.9c-22.2-8.9-57.1-35.4-53.6-62.5s28.8-22.8,39.6-24.8c3.1,7.1,10.6,11.2,14.4,17.4,8.1,13.1,7.7,29.8,17.8,43.6s25.5,27.2,28.8,14.1c1.8-7-9.1-10.7-13.7-15.2-16.5-16.2-13.7-40.6-28.5-58.1,2-2.9,51.7,11.6,58.1,10,5.7-1.4,4.3-9.9,0-11.8s-32.3-4.5-31.8-7.4c33.3-25.2,78.1-44.5,120.6-45.1ZM422,255.5c-5.7.3-26.6-.3-20.3,10.7,3.1,5.5,24.2-1.1,30.3,1.5-15.6,17.8-10,38-30,53.6-3.6,2.9-19.4,7.6-9.6,14.8,6.5,4.8,23.5-9.7,27.7-15.2,9.9-12.6,8.9-26.2,15.5-37.7,1.2-2.2,13.6-14.7,15.2-15.2,9-2.5,45.8,19.3,47.7,28.5,5.5,25.7-24.1,48.9-45.5,55.8-6.6,2.1-28.6,2.7-27.7,12.2s10.7,3.2,11.5,3.3c1.2.2,1.9,7.8,8.9,6.7s7.6-9.3,10.4-11.1c5.1-3.3,17.1-5.5,24.4-10.4,23.1-15.1,43.8-53.6,18.5-75.4-23.3-20.1-46.9-23.9-76.9-22.2ZM331.4,534.3c32.1-66.7-60.7-80-87.3-47-15.8,19.6-16.7,39.5,3,56.6M265.6,579.4c-21.9,17-40.2,60.8-40.7,88.4-6.7-.8-34.8-10.3-32.5,3.7,1.2,7.1,12,3.8,16.6,4.8s16.9,5.7,17.8,6.7c1.6,1.7,4,13.4,5.5,16.6,24.1,50.2,74.7,53.6,106.5,8.1,2.6-3.8,11.2-21.8,12.2-22.6s13.6-2.9,14.8-3c6.5-.2,23.6,6.9,20.3-6.3-2.2-9-30.5-2.6-31.8-4.4,4.6-24-13.8-73.5-32.5-88.4M446.4,518.8c-8.7,6-17.6,2.6-26.6,7.4-8.9,4.8-15.9,16.6-21.1,24.8,2.8,1.2,5.7-.8,9.2-.4,7.3.8,8.9,5,17-.7,6.7-4.8,5.6-11.2,8.5-15.9s10.1-7.8,12.6-11.8,2-2.4.4-3.3Z"/>
    <path class="st2" d="M422,255.5c30-1.7,53.6,2.1,76.9,22.2,25.3,21.8,4.6,60.3-18.5,75.4-7.4,4.8-19.3,7.1-24.4,10.4s-6.2,10.4-10.4,11.1c-7,1.1-7.7-6.4-8.9-6.7s-10.6,6-11.5-3.3,21.2-10.1,27.7-12.2c21.4-6.9,51-30.1,45.5-55.8-2-9.1-38.7-31-47.7-28.5-1.6.4-13.9,13-15.2,15.2-6.7,11.5-5.7,25.1-15.5,37.7-4.3,5.4-21.3,19.9-27.7,15.2-9.8-7.2,6-11.9,9.6-14.8,19.9-15.6,14.4-35.8,30-53.6-6.2-2.6-27.2,4-30.3-1.5-6.3-11,14.6-10.4,20.3-10.7Z"/>
    <path class="st0" d="M446.4,518.8c1.6.9.3,2.2-.4,3.3-2.4,4-10.5,8.5-12.6,11.8s-1.8,11.1-8.5,15.9c-8.1,5.8-9.7,1.6-17,.7s-6.4,1.6-9.2.4c5.2-8.2,12.2-20,21.1-24.8,9-4.8,17.9-1.4,26.6-7.4Z"/>
    <g>
      <path class="st3" d="M261.9,556.9c-1.1-2.3-12-10.2-14.8-12.9-19.7-17-18.7-37-3-56.6,26.6-33.1,119.3-19.8,87.3,47-9,18.8-28.5,34-50.3,30.7M286.3,573.2c12.7-1.2,15.1,1.5,24.8,4.1,3.5.9,7.9,3.6,10.7,5.9,18.8,14.9,37.2,64.4,32.5,88.4,1.3,1.8,29.6-4.5,31.8,4.4,3.2,13.2-13.8,6.1-20.3,6.3-1.1,0-14.2,2.5-14.8,3-1,.8-9.6,18.8-12.2,22.6-31.8,45.5-82.4,42-106.5-8.1-1.6-3.3-4-14.9-5.5-16.6-.9-1-15.6-6.2-17.8-6.7-4.7-1-15.5,2.3-16.6-4.8-2.3-14,25.9-4.5,32.5-3.7.4-27.6,18.8-71.4,40.7-88.4,1.5-1.2,4-1.4,5.2-3.3M278.5,481.8c-13.9,1.2-25.6,11-31.4,23.3s-4.6,14.1,2.2,22.9c8.9,11.5,27.9,26.8,43.3,24.8,19.4-2.6,42-39.3,31.4-56.6-6.2-10.2-34.3-15.4-45.5-14.4ZM274.8,587.6c-9,2.3-29.8,42-32.9,51.4-7.5,22.6-6.1,43.4,6.3,64l16.6-37.4c-10.3,3.6-11.7-7-4.1-12.2s41.3-.9,36.6,12.2c-2.7,7.7-15.8-4.8-15.5,0l32.2,50.7c21.6-18.4,33.8-44.9,27-73.6-2.7-11.1-20-47.9-30-52.9s-31.6-3.4-36.2-2.2Z"/>
      <path class="st6" d="M274.8,587.6c4.7-1.2,31.9,0,36.2,2.2,9.9,5,27.3,41.7,30,52.9,6.8,28.6-5.4,55.2-27,73.6l-32.2-50.7c-.3-4.8,12.8,7.7,15.5,0,4.7-13.1-26.8-18.9-36.6-12.2s-6.2,15.8,4.1,12.2l-16.6,37.4c-12.4-20.5-13.8-41.4-6.3-64,3.1-9.4,23.9-49.2,32.9-51.4Z"/>
      <path class="st5" d="M278.5,481.8c11.2-1,39.3,4.2,45.5,14.4,10.5,17.3-12,54-31.4,56.6-15.3,2.1-34.4-13.3-43.3-24.8-6.8-8.8-7.2-12.4-2.2-22.9s17.6-22.1,31.4-23.3Z"/>
    </g>
  </g>
  <g id="_レイヤー_11" data-name="_レイヤー_1" class="st4">
    <image class="st1" width="640" height="960" xlink:href="../../../../../../../Downloads/サイの白黒シンプルな画像.jpg"/>
  </g>
</svg>