<?xml version="1.0" encoding="UTF-8"?>
<svg xmlns="http://www.w3.org/2000/svg" version="1.1" xmlns:cc="http://creativecommons.org/ns#" xmlns:dc="http://purl.org/dc/elements/1.1/" xmlns:inkscape="http://www.inkscape.org/namespaces/inkscape" xmlns:rdf="http://www.w3.org/1999/02/22-rdf-syntax-ns#" xmlns:sodipodi="http://sodipodi.sourceforge.net/DTD/sodipodi-0.dtd" xmlns:svg="http://www.w3.org/2000/svg" viewBox="0 0 595.3 595.3" width="60" height="60">
  <defs>
    <style>
      .cls-1 {
        fill: #fef3e5;
      }
    </style>
  </defs>
  <!-- Generator: Adobe Illustrator 28.6.0, SVG Export Plug-In . SVG Version: 1.2.0 Build 709)  -->
  <g>
    <g id="_レイヤー_1" data-name="レイヤー_1">
      <path d="M524.1,279.2c0-30.6-25.1-55.7-55.7-55.7s-17.6,2.2-25.2,6.1c-8.3-20.3-28.4-34.8-51.5-34.8s-19.1,2.6-27.2,7.2c-9.3-18-28.1-30.4-49.5-30.4s-14.5,1.5-21,4.2V58.3c0-30.6-25.1-55.7-55.7-55.7h-.2c-30.5.1-55.7,25.3-55.7,55.8v233.8l-8.3-14.4c-15.3-26.5-49.6-35.7-76-20.4-26.5,15.3-35.7,49.6-20.4,76.1,0,0,43.2,78.4,61.2,117.4,7.5,16.2,21.2,51.2,47.7,82.2,26.4,31.1,67.4,58.6,125.5,59.1,87.4.8,141.6-26.2,172.5-62.3,31-36.1,38.1-79,39.4-107.9,2.2-48.7,0-142.8,0-142.8Z"/>
      <path class="cls-1" d="M489.2,279.3h0c0-12-9.1-21-21-21s-21,9.1-21,21v34.4c0,9.6-7.8,17.3-17.3,17.3s-17.3-7.8-17.3-17.3v-63.1c0-12-9.1-21-21-21s-21,9.1-21,21v63.1c0,9.6-7.8,17.3-17.3,17.3s-17.3-7.8-17.3-17.3v-86.4c0-12-9.1-21-21-21s-21,9.1-21,21v86.4c0,9.6-7.8,17.3-17.3,17.3s-17.3-7.8-17.3-17.3V58.5c0-12-9.1-21-21-21h.2c-12,0-21,9-21,20.9v298.4c0,6.2-3.3,11.9-8.7,15-8.3,4.8-18.9,2-23.7-6.3l-40.7-70.4c-6-10.3-18.4-13.7-28.7-7.7-10.3,6-13.7,18.4-7.7,28.8,0,0,42.9,77.7,62.3,119.5,8.5,18.3,20.7,48.6,42.6,74.3,21.9,25.7,51.8,46.2,99.4,46.9,80.3.7,122.2-22.5,146-50.2,23.8-27.7,30-62.3,31.1-86.9,2-45.6,0-140.5,0-140.5Z"/>
    </g>
  </g>
</svg>