<?xml version="1.0" encoding="UTF-8"?>
<svg xmlns="http://www.w3.org/2000/svg" version="1.1" viewBox="0 0 1161 794" width="60" height="60">
  <defs>
    <style>
      .cls-1 {
        fill: #fff;
      }
    </style>
  </defs>
  <!-- Generator: Adobe Illustrator 28.7.1, SVG Export Plug-In . SVG Version: 1.2.0 Build 142)  -->
  <g>
    <g id="_レイヤー_1" data-name="レイヤー_1">
      <rect class="cls-1" x="86" y="270" width="994" height="320" rx="77.1" ry="77.1"/>
      <g>
        <path d="M195.7,541c-23.2,0-40.9-8.4-52.7-25.1-9.3-13.2-14.1-30.4-14.1-51.3s7-43,20.9-64.6c5.4-8.4,11.6-16.1,18.6-22.8-5.8,2.1-12.9,4.6-21.3,7.3-15.6,5.1-19.7,5.6-21.5,5.6-7,0-12-3.5-14.9-10.3-1.1-2.7-1.6-5.6-1.6-8.7,0-6.8,3-11.7,8.8-14.8,2.4-1.2,6.3-2.1,12.1-3,11.3-1.5,30.6-6.7,57.5-15.6,3.2-1,6-1.6,8.4-1.6,5.9,0,11,2.2,15.1,6.4,4,4,6.1,8.9,6.1,14.3s-1.6,8.7-4.9,12.2c-.4.4-1.7,1.7-8.5,7.5-9.7,8.3-18.4,19.4-25.8,33.1-9.4,17.3-14.1,35.1-14.1,53.1s2.1,20.2,6.2,27.2c5.9,10.2,14.9,15.1,27.4,15.1,20.5,0,35.8-12,46.8-36.8,7.9-17.5,12.5-41.7,13.8-71.9v-7.7c0-5.4-.3-10.8-.8-16-.2-2.2-.3-3.6-.3-4.4,0-6.5,3.3-11.5,9.9-15,3.4-1.8,6.9-2.7,10.2-2.7,6.7,0,12.2,2.9,16.3,8.5h0c1,1.7,2.7,5.2,4.9,10.7,4.2,10.3,10.8,23,19.6,37.7,6.1,10.2,11.7,18.5,16.6,24.7,4.1,5.3,6.1,10.6,6.1,15.7s-2.5,11.3-7.5,15.3c-3.2,2.7-6.8,4-10.6,4-6.6,0-12.3-3.9-16.9-11.5-7.4-12.1-14-26.6-19.7-43.1v1.1c.2,3.9.3,7.5.3,10.8,0,32.2-6.9,59.1-20.6,79.7-16.3,24.5-39.9,36.9-70.2,36.9Z"/>
        <path d="M283.7,402.1l.5,11.6c.2,3.9.3,7.4.3,10.7,0,32-6.8,58.2-20.3,78.6-16,24-38.8,36-68.6,36s-39.6-8.1-51-24.3c-9.1-12.9-13.7-29.6-13.7-50.1s6.9-42.2,20.6-63.5c6.9-10.7,14.9-20,24.3-27.8l-.5-.8c-6.6,2.6-16.2,6-28.7,10.2-11.4,3.7-18.4,5.5-20.8,5.5-6.2,0-10.5-3-13.1-9.1-1-2.5-1.5-5.1-1.5-7.9,0-6,2.6-10.3,7.8-13.1,2.1-1.1,5.9-2,11.5-2.8,11.4-1.5,30.7-6.7,57.9-15.7,3-1,5.6-1.5,7.8-1.5,5.4,0,9.9,1.9,13.7,5.8,3.7,3.7,5.5,8,5.5,12.9s-1.5,7.7-4.4,10.8c-.5.6-3.3,3.1-8.3,7.4-9.9,8.5-18.7,19.7-26.2,33.6-9.6,17.7-14.4,35.7-14.4,54.1s2.2,20.9,6.5,28.2c6.2,10.7,16,16.1,29.1,16.1,21.2,0,37.4-12.7,48.6-38,8-17.8,12.7-42.1,14-72.6v-7.8c0-5.5-.3-10.9-.8-16.2-.2-2.1-.3-3.5-.3-4.2,0-5.7,2.9-10.1,8.8-13.2,3.2-1.7,6.2-2.5,9.2-2.5,6.1,0,10.9,2.6,14.6,7.6,1,1.5,2.5,4.9,4.7,10.3,4.2,10.5,10.8,23.1,19.8,38,6.2,10.3,11.7,18.6,16.7,24.9,3.8,4.9,5.7,9.8,5.7,14.5s-2.2,10.1-6.7,13.7c-2.9,2.4-6,3.6-9.4,3.6-5.9,0-10.9-3.5-15.2-10.5-8.9-14.5-16.5-32.2-22.8-53l-1.1.5Z"/>
        <path d="M465.3,530c-11.4,0-13.7-7-13.7-12.8s1.9-7.9,5.7-10.6c1-.7,3.4-1.9,12.9-5,28.8-9.5,43.4-24,43.4-43.2s-2.2-12.7-6.6-16.7c-4.3-3.9-10.5-5.9-18.2-5.9s-26.7,2.6-49,7.7c-30.1,7-46.7,10.3-50.7,10.3s-7.7-1.3-10.5-4c-3.5-3.2-5.2-7.6-5.2-13.3s3.1-13.9,18.1-15.7c6-.8,21.6-3.7,46.3-8.5,24.5-4.7,42.2-7,52.5-7s26.7,3.6,37.1,10.8c14.1,9.8,21.3,23.6,21.3,41.2,0,28.6-15.2,49.7-45.2,62.6-9.6,4.2-20.2,7.3-31.6,9.4-2.9.6-5.1.8-6.7.8Z"/>
        <path d="M490.3,407.3c13.9,0,25.9,3.5,36,10.4,13.6,9.4,20.4,22.6,20.4,39.6,0,27.9-14.7,48.1-44,60.8-9.5,4.1-19.9,7.2-31.1,9.2-2.8.5-4.9.8-6.3.8-7.8,0-11.7-3.6-11.7-10.8s1.6-6.7,4.9-9c1.3-.9,5.4-2.5,12.4-4.7,29.9-9.8,44.8-24.9,44.8-45.1s-2.4-13.8-7.3-18.2c-4.7-4.3-11.3-6.5-19.5-6.5s-26.9,2.6-49.4,7.8c-29.7,6.9-46.5,10.3-50.2,10.3s-6.7-1.1-9.1-3.4c-3.1-2.8-4.6-6.8-4.6-11.9,0-7.8,5.4-12.4,16.3-13.7,6.1-.8,21.5-3.6,46.4-8.6,24.5-4.7,41.9-7,52.1-7Z"/>
        <path d="M623.6,538.6c-18,0-26.8-27.3-26.8-83.6s2.1-55.9,6.2-92.9c1.3-11.3,2.3-18.2,3.2-21.2,2.5-8,8.4-12.2,17.1-12.2s8.2,1,11.3,2.9c4.7,2.9,7,7.6,7,13.8s-.1,3.1-1.3,10.2c-3,18.2-5.6,41.2-7.9,68.3-.8,9.9-1.2,19.5-1.2,28.4s.3,20.1.8,28.1c2.6-5.4,4.7-9.6,6.2-12.5,2.1-3.7,5.3-5.6,9.1-5.6s3.6.4,5.2,1.3c3.7,2.1,5.5,5.3,5.5,9.1s-.9,5-2.8,9.4c-3.7,8.1-8.1,20.8-13.4,37.8-3.8,12.4-10,18.7-18.4,18.7ZM720.5,534.5c-15.3,0-28.5-4.3-39.2-12.7-10.6-8.4-15.9-18.4-15.9-29.8s4.9-19.5,14.5-25.7c7.8-4.9,17.7-7.4,29.6-7.4s12.7.8,20.7,2.3v-1.9l-.4-17.9c-.2-16.1-.4-28.1-.4-35.8-9.1.8-22.3,2.2-39.4,4-1.7.2-3.1.3-4.2.3-7.2,0-15.8-3-15.8-17s4.4-14.5,12.8-16.2c2.7-.5,17.9-2.2,46.6-5v-35.2c0-4.5,1.6-8.2,4.8-11,3.3-2.9,7.7-4.4,13-4.4,7.8,0,13.2,2.8,16.1,8.5,1.1,2,1.7,4.4,1.7,7v31.9c21.9-2.1,25.5-2.4,26.3-2.4,6.6,0,11.5,3.2,14.1,9.3,1.2,2.6,1.7,5.5,1.7,8.7,0,6.7-2.9,15-16.8,16-2.9.2-8.6.7-17.1,1.6-2.2.2-5,.5-8.4.9,0,28.5.4,52.3,1,70.6,15.1,6.8,27.9,13.9,38,21,6,4.2,9,9.7,9,16.3s-1.2,7.4-3.6,10.6c-3.4,4.4-7.8,6.6-13.1,6.6s-8.7-1.7-13.2-5.2c-7.4-5.6-13.7-10.2-18.8-13.6-6.3,17.2-21,25.9-43.8,25.9ZM708.8,486.9c-11.8,0-11.8,4.6-11.8,6.2,0,2.5,1.4,4.8,4.2,7.2,4.2,3.4,9.9,5.2,16.9,5.2s12.9-3.8,12.9-12.1v-1.8c-8.4-3.1-15.8-4.7-22.1-4.7Z"/>
        <path d="M630.7,488.2c4-8.9,7.2-15.3,9.4-19.2,1.8-3.1,4.2-4.6,7.4-4.6s2.9.4,4.2,1.1c3,1.8,4.5,4.2,4.5,7.4s-.9,4.5-2.6,8.6c-3.7,8.2-8.2,20.8-13.4,38-3.5,11.5-9,17.3-16.5,17.3-16.5,0-24.8-27.2-24.8-81.6s2.1-55.6,6.2-92.7c1.2-11.1,2.3-18,3.2-20.8,2.3-7.2,7.3-10.8,15.2-10.8s7.5.9,10.3,2.6c4,2.6,6.1,6.6,6.1,12.1s-.4,4.7-1.3,9.9c-3,18.4-5.6,41.2-7.9,68.4-.8,10-1.2,19.6-1.2,28.6,0,14.4.5,26.4,1.5,35.9ZM731.3,373.5v-37c0-4,1.4-7.1,4.1-9.5,3-2.6,6.9-4,11.7-4,7,0,11.8,2.5,14.4,7.4,1,1.8,1.5,3.8,1.5,6.1v34h2.1c16.3-1.7,25-2.5,26.2-2.5,5.9,0,10,2.7,12.3,8,1.1,2.4,1.6,5,1.6,7.9,0,8.6-5,13.3-14.9,14-2.9.2-8.6.7-17.1,1.6-2.6.3-6,.6-10.2,1.1,0,30.1.4,54.7,1.1,73.7,15.6,6.9,28.5,14.1,38.8,21.4,5.4,3.9,8.2,8.7,8.2,14.6s-1.1,6.5-3.2,9.4c-3,3.9-6.8,5.8-11.5,5.8s-7.9-1.6-12-4.7c-8.5-6.5-15.6-11.6-21.1-15.2-5.5,18-19.8,27-42.7,27s-27.6-4.1-38-12.3c-10.1-8-15.2-17.4-15.2-28.2s4.5-18.2,13.6-24c7.5-4.7,17-7.1,28.5-7.1s13.8.9,22.7,2.8v-4.4l-.4-17.9c-.3-17.8-.4-30.4-.4-38-9.1.8-23,2.2-41.7,4.2-1.7.2-3,.3-4,.3-9.2,0-13.8-5-13.8-15s3.7-12.7,11.2-14.2c2.6-.5,18.7-2.2,48.3-5.1ZM732.9,490.2c-9.1-3.5-17.2-5.3-24.1-5.3s-13.8,2.7-13.8,8.2,1.6,6,4.9,8.7c4.6,3.8,10.6,5.7,18.2,5.7s14.9-4.7,14.9-14.1v-3.2Z"/>
        <path d="M948.7,541.2c-12.7,0-23.9-2.8-33.3-8.5-12.5-7.5-18.9-17.6-18.9-30.1s4.3-17.6,12.7-23.9c8.8-6.6,20.1-9.9,33.4-9.9,20.8,0,38.1,9,51.2,26.7,6.8-7.5,10.2-16.1,10.2-25.6s-3.8-16.4-11.7-21.8c-6.2-4.3-14.5-6.5-24.6-6.5-28.9,0-56.2,9.8-81,29-4.8,3.8-9.5,5.7-13.9,5.7s-8.6-2-11.9-5.8c-3.5-4.2-5.2-8.7-5.2-13.6s1.7-9.3,5.2-12.8c.7-.7,3.2-3,7.6-6.8,28.6-25.1,56.2-51.5,82-78.5-24.9,4.6-40.2,6.9-46.7,6.9s-9.8-1.7-12.9-5.1c-2.8-3-4.2-7-4.2-11.8,0-8.3,3.6-13.9,10.8-16.6,2.4-.8,6.3-1.4,12.2-1.8,25.5-1.8,46.9-4.8,63.6-8.8,2.1-.5,4-.7,5.6-.7,7,0,12.9,2.9,17.6,8.5,3.3,3.9,4.9,8.2,4.9,12.9s-1.8,9.1-5.4,13c-10.3,11.4-33.5,33.6-68.9,66,13.5-6.5,28.2-9.8,44-9.8s34.5,4.4,47.1,13.1c15.9,10.9,23.9,26,23.9,45s-11.2,45.1-33.2,57.8c-16,9.2-36.2,13.8-60.1,13.8ZM941.5,496.7c-12.6,0-12.6,5-12.6,6.7s1.2,3.7,3.5,5.2c3.5,2.2,8.7,3.3,15.4,3.3s13.2-.6,17.9-1.7c-7.5-8.9-15.6-13.4-24.2-13.4Z"/>
        <path d="M953.7,356.3c-26.7,5-43.4,7.5-50.1,7.5s-8.7-1.5-11.5-4.5c-2.5-2.6-3.7-6.1-3.7-10.4,0-7.4,3.2-12.3,9.5-14.8,2.1-.7,6-1.3,11.6-1.7,25.7-1.8,47-4.8,63.9-8.8,1.9-.4,3.6-.7,5.1-.7,6.4,0,11.8,2.6,16.1,7.8,3,3.5,4.5,7.4,4.5,11.6s-1.6,8.1-4.9,11.6c-11.2,12.4-37.1,37.1-77.8,74.1l.8.9c16-10.3,33.8-15.4,53.5-15.4s33.6,4.3,46,12.8c15.4,10.5,23.1,25,23.1,43.4s-10.7,43.7-32.2,56c-15.7,9.1-35.4,13.6-59.1,13.6s-23.2-2.7-32.3-8.2c-12-7.1-17.9-16.6-17.9-28.3s4-16.4,11.9-22.3c8.5-6.3,19.2-9.5,32.2-9.5,21,0,38,9.3,51,27.8,8.3-8.3,12.4-17.9,12.4-28.7s-4.2-17.8-12.5-23.5c-6.6-4.6-15.2-6.9-25.7-6.9-29.5,0-57,9.8-82.3,29.4-4.5,3.5-8.7,5.3-12.7,5.3s-7.4-1.7-10.4-5.1c-3.2-3.8-4.7-7.9-4.7-12.3s1.5-8.3,4.6-11.3c.7-.7,3.2-2.9,7.5-6.7,30-26.3,58.4-53.6,85.2-81.9l-1.2-.8ZM969.1,511.2c-8.4-11-17.7-16.5-27.7-16.5s-14.6,2.9-14.6,8.7,1.5,5,4.5,6.9c3.9,2.4,9.4,3.6,16.5,3.6s14.5-.7,19.6-2.1c.4,0,.6-.2.8-.3,0,0,.4,0,.9-.3Z"/>
        <path d="M822.5,365.7c-21.2,0-38.5-17.3-38.5-38.5s17.3-38.5,38.5-38.5,38.5,17.3,38.5,38.5-17.3,38.5-38.5,38.5ZM822.5,308.7c-10.2,0-18.5,8.3-18.5,18.5s8.3,18.5,18.5,18.5,18.5-8.3,18.5-18.5-8.3-18.5-18.5-18.5Z"/>
        <path d="M822.5,363.7c-20.1,0-36.5-16.4-36.5-36.5s16.4-36.5,36.5-36.5,36.5,16.4,36.5,36.5-16.4,36.5-36.5,36.5ZM822.5,306.7c-11.3,0-20.5,9.2-20.5,20.5s9.2,20.5,20.5,20.5,20.5-9.2,20.5-20.5-9.2-20.5-20.5-20.5Z"/>
      </g>
    </g>
  </g>
</svg>