<?xml version="1.0" encoding="UTF-8"?>
<svg xmlns="http://www.w3.org/2000/svg" version="1.1" xmlns:xlink="http://www.w3.org/1999/xlink" viewBox="0 0 623.9 605.7">
  <!-- Generator: Adobe Illustrator 29.0.0, SVG Export Plug-In . SVG Version: 2.1.0 Build 186)  -->
  <defs>
    <style>
      .st0 {
        fill: #fff;
      }

      .st1 {
        fill: #737373;
      }

      .st2 {
        opacity: .6;
      }

      .st3 {
        display: none;
      }

      .st4 {
        fill: #e4e4e4;
      }
    </style>
  </defs>
  <g id="_レイヤー_1" data-name="レイヤー_1" class="st3">
    <image class="st2" width="225" height="238" transform="translate(-3 -14.1) scale(2.8)" xlink:href="スクリーンショット-2024-10-20-104029.png"/>
  </g>
  <g id="_レイヤー_3" data-name="レイヤー_3">
    <polygon class="st0" points="567.1 109.9 567.1 72.8 531.2 72.8 531.2 36.9 387.3 36.9 387.3 72.8 279.5 72.8 279.5 108.8 171.6 108.8 171.6 144.7 99.7 143.7 99.7 180.3 99.7 180.7 63.7 180.7 63.7 216.6 27.8 216.6 27.8 432.4 63.7 432.4 63.7 468.3 99.7 468.3 99.7 504.3 135.6 504.3 135.6 540.3 495.2 540.3 495.2 504.3 531.2 504.3 531.2 468.3 567.1 468.3 567.1 432.4 603.1 432.4 603.1 109.9 567.1 109.9"/>
  </g>
  <g id="_レイヤー_2" data-name="レイヤー_2">
    <rect x="60.7" y="193.7" width="36" height="36"/>
    <rect x="60.7" y="445.4" width="36" height="36"/>
    <rect x="96.7" y="481.3" width="36" height="36"/>
    <rect x="528.2" y="445.4" width="36" height="36"/>
    <rect x="492.2" y="481.3" width="36" height="36"/>
    <rect x="528.2" y="265" width="36" height="36"/>
    <rect x="206" y="230.2" width="36" height="36"/>
    <rect x="241.9" y="266.2" width="36" height="36"/>
    <rect x="134.1" y="302.1" width="36" height="36"/>
    <rect x="312.4" y="157.7" width="36" height="36"/>
    <rect class="st4" x="60.7" y="372.4" width="36" height="36"/>
    <rect class="st4" x="96.7" y="409.4" width="36" height="36"/>
    <rect class="st4" x="312.4" y="193.3" width="36" height="36"/>
    <rect class="st4" x="420.3" y="157.7" width="36" height="36"/>
    <rect class="st4" x="277.2" y="120.7" width="36" height="36"/>
    <rect class="st4" x="168.6" y="158" width="36" height="36"/>
    <rect class="st4" x="96.7" y="193.3" width="36" height="36"/>
    <rect class="st4" x="60.7" y="229.6" width="36" height="36"/>
    <rect class="st4" x="528.2" y="193.6" width="36" height="36"/>
    <rect class="st4" x="528.2" y="301.6" width="36" height="36"/>
    <rect class="st4" x="528.2" y="372.4" width="36" height="36"/>
    <rect class="st4" x="206" y="266.2" width="36" height="36"/>
    <rect class="st1" x="60.7" y="409.4" width="36" height="36"/>
    <rect class="st1" x="96.7" y="445.4" width="36" height="36"/>
    <rect class="st1" x="492.2" y="445.4" width="36" height="36"/>
    <rect class="st1" x="528.2" y="409.4" width="36" height="36"/>
    <rect class="st1" x="492.2" y="193.6" width="36" height="36"/>
    <rect class="st1" x="528.2" y="229.1" width="36" height="36"/>
    <rect x="348.6" y="194" width="36" height="36"/>
    <rect x="313.6" y="337.5" width="36" height="36"/>
    <rect x="420.3" y="121.8" width="36" height="36"/>
    <rect x="96.7" y="157.7" width="71.9" height="36"/>
    <rect x="170" y="338.1" width="71.9" height="36"/>
    <rect class="st4" x="456.3" y="408.3" width="71.9" height="37.1"/>
    <rect class="st4" x="384.3" y="264.9" width="71.9" height="36"/>
    <rect class="st4" x="456.3" y="264.9" width="71.9" height="36"/>
    <rect class="st4" x="384.3" y="85.8" width="71.9" height="36"/>
    <rect class="st4" x="277.9" y="229.1" width="71.9" height="36"/>
    <rect class="st4" x="492.2" y="157.5" width="71.9" height="36"/>
    <rect class="st1" x="384.3" y="372.4" width="107.9" height="36"/>
    <rect class="st1" x="241.9" y="337.5" width="71.9" height="36"/>
    <rect class="st1" x="170" y="302.1" width="71.9" height="36"/>
    <rect class="st1" x="276.5" y="266.2" width="71.9" height="36"/>
    <rect class="st1" x="384.3" y="194" width="71.9" height="36"/>
    <rect x="384.3" y="408.3" width="71.9" height="36"/>
    <rect x="438.3" y="175.4" width="71.9" height="36" transform="translate(667.6 -280.8) rotate(90)"/>
    <rect class="st1" x="330.6" y="318.7" width="71.9" height="36" transform="translate(703.3 -29.9) rotate(90)"/>
    <rect x="330.6" y="247.1" width="71.9" height="36" transform="translate(631.6 -101.6) rotate(90)"/>
    <rect x="313.6" y="373.2" width="71.9" height="36"/>
    <rect x="168.6" y="121.8" width="107.9" height="36"/>
    <rect x="241.9" y="302.1" width="106.5" height="36"/>
    <rect x="276.5" y="85.8" width="107.9" height="36"/>
    <rect x="132.6" y="517.3" width="359.6" height="36"/>
    <rect class="st4" x="132.6" y="445.4" width="359.6" height="36"/>
    <rect class="st1" x="132.6" y="481.3" width="359.6" height="36"/>
    <rect x="384.3" y="49.9" width="143.8" height="36"/>
    <rect x="384.3" y="229.1" width="143.8" height="36"/>
    <rect x="528.2" y="85.8" width="36" height="36"/>
    <rect x="420.9" y="266.2" width="322.5" height="36" transform="translate(298 866.2) rotate(-90)"/>
    <rect x="-65.1" y="319.5" width="215.7" height="36" transform="translate(380.3 294.8) rotate(90)"/>
  </g>
</svg>