<?xml version="1.0" encoding="UTF-8"?>
<svg xmlns="http://www.w3.org/2000/svg" version="1.1" xmlns:cc="http://creativecommons.org/ns#" xmlns:dc="http://purl.org/dc/elements/1.1/" xmlns:inkscape="http://www.inkscape.org/namespaces/inkscape" xmlns:rdf="http://www.w3.org/1999/02/22-rdf-syntax-ns#" xmlns:sodipodi="http://sodipodi.sourceforge.net/DTD/sodipodi-0.dtd" xmlns:svg="http://www.w3.org/2000/svg" viewBox="0 0 100 100" width="128" height="128">
  <defs>
    <style>
      .cls-1 {
        fill: #fef3e5;
      }
    </style>
  </defs>
  <!-- Generator: Adobe Illustrator 28.6.0, SVG Export Plug-In . SVG Version: 1.2.0 Build 709)  -->
  <g>
    <g id="_レイヤー_1" data-name="レイヤー_1">
      <path class="cls-1" d="M4.4.8c-.5,0-.8.4-.8.8v3.6-.2c-.4-.4-.9-.5-1.3-.3-.4.2-.5.8-.3,1.2h0s.7,1.2.9,1.8c.1.2.3.8.7,1.3s1,.9,1.9.9c1.3,0,2.2-.4,2.6-1,.5-.6.6-1.2.6-1.6,0-.7,0-2.2,0-2.2h0c0-.5-.4-.8-.8-.8s-.3,0-.4,0c-.1-.3-.4-.5-.8-.5s-.3,0-.4.1c-.1-.3-.4-.5-.8-.5s-.2,0-.3,0v-1.8c0-.5-.4-.8-.8-.8h0Z"/>
      <path d="M4.4.8c-.5,0-.8.4-.8.8v3.6-.2c-.4-.4-.9-.5-1.3-.3-.4.2-.5.8-.3,1.2h0s.7,1.2.9,1.8c.1.2.3.8.7,1.3s1,.9,1.9.9c1.3,0,2.2-.4,2.6-1,.5-.6.6-1.2.6-1.6,0-.7,0-2.2,0-2.2h0c0-.5-.4-.8-.8-.8s-.3,0-.4,0c-.1-.3-.4-.5-.8-.5s-.3,0-.4.1c-.1-.3-.4-.5-.8-.5s-.2,0-.3,0v-1.8c0-.5-.4-.8-.8-.8h0ZM4.4,1.3h0c.2,0,.3.1.3.3v3.9c0,.1.1.3.3.3h0c.1,0,.3-.1.3-.3h0v-1.3c0-.2.1-.3.3-.3s.3.1.3.3v1.3c0,.1.1.3.3.3h0c.1,0,.3-.1.3-.3h0v-1c0-.2.1-.3.3-.3s.3.1.3.3v1c0,.1.1.3.3.3h0c.1,0,.3-.1.3-.3h0v-.5c0-.2.1-.3.3-.3s.3.1.3.3h0s0,1.4,0,2.1c0,.4-.1.9-.5,1.3-.4.4-1,.8-2.2.8-.7,0-1.2-.3-1.5-.7-.3-.4-.5-.9-.7-1.1-.3-.6-1-1.8-1-1.8,0-.2,0-.3.1-.4.2,0,.3,0,.4.1l.6,1.1c0,.1.2.2.4,0,0,0,.1-.1.1-.2V1.6c0-.2.1-.3.3-.3h0Z"/>
    </g>
  </g>
</svg>
