<?xml version="1.0" encoding="UTF-8"?>
<svg xmlns="http://www.w3.org/2000/svg" version="1.1" viewBox="0 0 100 85.8">
  <defs>
    <style>
      .cls-1 {
        fill: #fff;
      }
    </style>
  </defs>
  <!-- Generator: Adobe Illustrator 28.7.1, SVG Export Plug-In . SVG Version: 1.2.0 Build 142)  -->
  <g>
    <g id="_レイヤー_1" data-name="レイヤー_1">
      <g id="_レイヤー_1-2" data-name="_レイヤー_1">
        <path class="cls-1" d="M16.4,26.3c4.7-5.3,9-8.5,12.6-11.1,2.2-1.6,6.6-4.7,12.9-6.9,3.5-1.2,5-1.3,6.1-.6,2.7,1.6,3.4,6.8,1.5,10.1-2,3.5-5.5,2.2-9.8,5.6-4.6,3.5-8.3,10.8-6.1,16.7,1.2,3.3,3.9,5.1,9.2,8.5,1.2.8,2.2,1.3,3.2,1,1.4-.3,2.2-2.5,3.9-6.9,1.7-4.3,2.5-6.5,2.6-7,.6-4-.7-4.6,0-8.6.2-1.3.8-3.7,2.5-6.1,1.3-2,3.2-4.8,5-4.5,3.2.4,4.8,10.4,5.6,15.2,1.2,7.7.6,11.2,2.3,11.8,3.2,1.2,7.6-10,13.6-9.1,2.2.3,5.1,2.4,6.1,5,.6,1.5.2,2,.9,3.1,1.7,2.6,5.7,1.3,6.9,3.1,1.3,1.9-1.4,6.4-4.2,9.6-2.9,3.3-6.5,6.1-19,11.7-7.7,3.5-11.6,5.2-16.4,6.6-7.5,2.1-13.1,3.8-20,3.1-3.4-.3-17.5-1.7-25-13.9-4.8-7.8-5.3-17.5-2.3-25,1.6-4,3.9-6.6,8-11.3h0Z"/>
        <g id="_レイヤー_1-2">
          <path d="M98.4,48.3c-.6-4.3-2.9-6.2-4.7-7-.8-.4-1.7-.6-2.7-.7v-.5c-.2-3.2-2.1-6-5-7.3-1.2-.5-2.4-.8-3.8-.8-2.8,0-5.6,1.2-8.5,3.4-1.8,1.4-3.4,3-4.6,4.5.5-2.5.6-4.4.3-5.7-.2-.7-.4-2.2-.7-3.8-1.2-7.9-2.3-13.7-6.1-15.8-.9-.5-1.8-.7-2.7-.7s-1.5.2-2.2.5c-1.1.4-2,.9-2.8,1.3-1,4.9-4.3,7.7-5.5,8.6s-.4.5-.4.9c0,.7,0,1.4.3,2.2.2,1,.3,1.9.2,2.7-.3,2.9-.3,5.1-.2,6.6-2.4,2.5-4.5,6.6-5.8,9.4-3.2-1.4-5.3-3.1-6.2-4.9-1.1-2.4,0-5.2.8-7.4l.2-.6c0-.3.2-.7.4-1,.3-.7.5-1.6.8-1.8.9-.7,1.6-1.4,2.1-2,.6-.7,1-1.2,2-1.7,2.3-1.1,4.1-2.3,5.4-3.6h0c2.6-2.3,4.2-6.4,4.2-6.4,0-.5.2-.9.3-1.4.5-3.3-.6-6.6-3-9-.9-.9-2.1-1.3-3.5-1.3s-4.5.8-7.2,1.8c-.6.2-1.9.6-2.1.7-6,.8-11.1,5.4-16,9.9-1.5,1.4-3,2.7-4.4,3.9-.5.4-.9.8-1.4,1.1-5.8,4.4-12.9,10.1-11.4,21.7.2,1.2.2,2.8.3,4.5.3,7.4.9,19.9,12.1,23.7,2.8.9,5.6,2.1,8.4,3.3,6.4,2.6,12.4,5.1,17.9,5.1s4.2-.4,6-1.2c2.4-1.1,5.9-2.2,9.6-3.4,7.8-2.5,15.8-5.1,19.5-9,1.6-1.6,4.8-3.7,7.9-5.7,6.8-4.4,12.7-8.3,12.1-13.1h0ZM73.4,45.6c.7-1.2,2.1-3,4.6-4.9,1.6-1.3,3.1-2,4.3-2s.6,0,.9.2c.6.3.9.8,1,1.4,0,.4,0,1-.8,1.6-3.1,1.2-6.7,3.1-10.9,5.8-.7.5-1.4.9-2.1,1.2,1.2-.9,2.3-2,3.1-3.4h0ZM82.6,56c-3.6,2.3-7,4.1-9.1,6.3-2.6,2.6-10.4,5.2-16.8,7.2-3.9,1.3-7.5,2.4-10.3,3.7-.9.4-2,.6-3.2.6-4.2,0-9.6-2.2-15.3-4.6-2.9-1.2-5.8-2.4-8.8-3.4-6.7-2.3-7.1-10.4-7.4-17.5,0-1.8-.2-3.6-.4-5.1-1-7.8,3.3-11.3,8.8-15.7.5-.4,1-.8,1.4-1.2,1.6-1.3,3.1-2.7,4.7-4.1,4.1-3.8,8.4-7.6,12.2-8.1.8-.1,1.8-.4,3.5-1,2-.7,3.5-1.1,4.3-1.3.4.7.6,1.5.5,2.3-.3,2.2-2.6,4.4-6.2,6.2-2.3,1.1-3.4,2.4-4.2,3.4-.3.4-.6.7-.8.9-2,1.5-2.7,3.5-3.3,5.1,0,.3-.2.5-.3.8l-.2.6c-1.1,2.7-3,7.7-.6,12.8,2,4.2,6.3,7.3,13.2,9.6.6.2,1.2.2,1.9,0,1.1-.3,2.1-1.2,2.5-2.3,1.6-4.2,4.4-10.1,6.3-11.3,1.1-.8.9-2.2.7-3.5,0,0-1.3-6.5-.7-10.5.4-2.3.4-3.2,3.4-4.6.7-.3,1.5,0,1.7.7.5,1.5,1.2,4.2,1.9,9.3.3,1.9.5,3.4.8,4.6.4,1.6-2.5,10.9-6,18.4-.2.3-.3.6-.4.9-1.4,3-2.3,4.2-2.7,4.6-.6.7-.9,1.6-.9,2.5s.5,1.7,1.1,2.4c.6.6,1.4.9,2.3.9s1.9-.4,2.5-1.1c1-1.1,2.2-3.2,3.1-5,3-.5,8.2-2,14.2-5.8,3.7-2.4,6.8-4.1,9.4-5.1.3,0,.6-.2.9-.3,1.4-.5,2.6-.7,3.5-.7s.8,0,1,.2c.4.2.6.9.7,1.5-.6,1-3.6,3.2-8.9,6.7h0Z"/>
        </g>
      </g>
    </g>
  </g>
</svg>