<?xml version="1.0" encoding="UTF-8"?>
<svg id="_レイヤー_1" xmlns="http://www.w3.org/2000/svg" baseProfile="tiny" version="1.2" viewBox="0 0 335 335">
  <!-- Generator: Adobe Illustrator 29.8.3, SVG Export Plug-In . SVG Version: 2.1.1 Build 3)  -->
  <defs>
    <style>
      .st0 {
        fill: #fff;
      }
    </style>
  </defs>
  <g id="_レイヤー_11">
    <g id="_編集モード">
      <path class="st0" d="M92.2,322h150.5c10.6,0,19.1-7.9,20.5-18.2l25.7-215.9H45.7l26.1,215.9c1.3,10.2,9.9,18.2,20.5,18.2ZM204.8,144.1h0c4,0,6.9,3.3,6.9,6.9v107.6c0,4-3.3,6.9-6.9,6.9h0c-4,0-6.9-3.3-6.9-6.9v-107.6c0-4,3.3-6.9,6.9-6.9ZM130.2,144.1h0c4,0,6.9,3.3,6.9,6.9v107.6c0,4-3.3,6.9-6.9,6.9h0c-4,0-6.9-3.3-6.9-6.9v-107.6c0-4,3.3-6.9,6.9-6.9Z"/>
      <path class="st0" d="M195.6,41.1v-19.8c0-4.6-3.6-8.3-8.3-8.3h-39.6c-4.6,0-8.3,3.6-8.3,8.3v19.8H63.5c-9.6,0-17.5,7.9-17.5,17.5v10.6h243.3v-10.6c0-9.6-7.9-17.5-17.5-17.5h-76.2Z"/>
    </g>
  </g>
</svg>