<?xml version="1.0" encoding="UTF-8"?>
<svg id="_レイヤー_1" data-name="レイヤー 1" xmlns="http://www.w3.org/2000/svg" baseProfile="tiny" version="1.2" viewBox="0 0 138.9 138.9">
  <path d="M32.36,49.86c-.02-.09-.03-.18-.03-.28.68-.36.96.23,1.34.57,1.2.77,1.95.61,2.44-.52.25-.58.23-1.21.32-1.82.11-.63.33-1.24.78-1.67,4.24-4.05,7.28-9.19,11.77-13.03,2.38-2.04,4.85-3.92,7.7-5.26,5.92-2.78,11.85-2.05,17.58.37,4,1.69,7.84,3.77,11.1,6.8,3.12,2.91,5.73,6.12,6.91,10.26.94,3.31.29,6.68-.09,10-.33,2.92-1.39,5.68-2.12,8.52-.2.72-.61,1.26-1.3,1.57-1.35.92-2.1,2.41-3.34,3.47-3.55,3.04-7.9,3.78-12.27,4.37-3.36.46-6.74,1.2-10.17.53-.6-.12-.72.32-.89.73-.5.67-1.19.6-1.9.51-3.27-.43-6.49-1.04-9.68-1.9-4.66-1.26-8.75-3.52-12.49-6.49-.29-.23-.54-.53-.96-.49-.43.06-.85.22-1.3.13-.35-.11-.65-.28-.81-.63.41-.85.62-1.71.28-2.64-.15-1.43-.8-2.74-1-4.16-.25-1.77-.23-3.52.2-5.26-.69,1.73-.48,3.53-.36,5.31.05.67.34,1.35-.27,1.92-.36-.29-.71-.95-1.09-.02-1.69.92-3.12.39-4.35-.87-1.5-1.53-1.66-3.41-1.11-5.36.54-1.92,1.41-3.6,3.67-3.96.54-.09,1.13-.08,1.42-.69Z" fill="#feedf3" stroke-width="0"/>
  <path d="M62.2,74.36c-.35-.16-.72-.34-.58-.8.14-.46.56-.43.93-.37,4.4.69,8.71-.14,13.01-.85,3.58-.59,7.08-1.47,9.85-4.11.73-.69,1.42-1.38,1.98-2.22.3-.46.37-1.3,1.28-1.03,1.06.93.27,1.79-.28,2.41-1.3,1.47-1.08,2.79-.21,4.4,1.89,3.52,4.24,6.57,7.72,8.65.46.28,1.1.58.87,1.26-.13.39-.63.26-.99.14-.57-.25-1.13-.49-2.13-.92,2.07,4.78,1.46,9.21-.82,13.56,5.41.39,10.49-.3,15.59-.29,1.37,0,2.74.07,4.11.14.4.02.99.01.9.63-.07.48-.58.35-.93.33-5.86-.45-11.7.43-17.55.31-2.91-.06-3.37.34-4.45,3.29.19.42.09.83,0,1.24-.5,1.56.09,3.06.24,4.58.22,2.2.66,4.41-.35,6.55-.18.24-.42.4-.69.52-1.15.34-1.04,2.15-2.48,2.15-.36,0-.66-.16-.95-.35-.27-.16-.53-.31-.8,0-.38.51-.75,1.03-1.35,1.31-.34.09-.66,0-.97-.1-.39-.11-.68-.41-1.04-.56-.78.23-1.19,1.5-2.29.83-.45-.26-.62-.74-.93-1.11-.26-.32-.5-.65-.69-1.01-.09-.15-.15-.3-.22-.46-.33-.77.02-1.53,0-2.3,0-.27,0-.53,0-.8,0-.55,0-1.1.03-1.65.02-.28.07-.55.14-.82.22-1.07.68-2.06.97-3.11.15-.62.35-1.22.54-1.82.18-.6.49-1.15.46-1.8-.27-.68-.88-.61-1.42-.61-4.03-.02-8.05-.03-12.08,0-.62,0-1.24.07-1.74.52-.76.71-.61,1.43,0,2.15.37.5.66,1.04.95,1.59.44,1,1.14,1.99.06,3.01-.38.27-.5.71-.72,1.09-1.11,1.26-2.31.92-3.53.22-.38-.23-.66-.57-.95-.89-.24-.23-.51-.41-.78-.6-.56-.42-1.01-1.06-1.84-.91-.29.06-.57.17-.8.36-.42.34-.48.95-.93,1.26-.43.07-.74-.28-1.14-.32-.5-.08-1.01-.04-1.51-.04-.45,0-.89-.01-1.33-.08-1.05-.21-2.05-.53-3-1.04-.16-.06-.31-.13-.46-.22-.35-.21-.64-.51-.99-.73-.28-.16-.6-.23-.92-.3-.82-.24-1.68-.24-2.52-.4-.42-.12-.72-.41-1.04-.69-.38-.34-.87-.35-1.32-.45-.48-.13-.87-.43-1.31-.62-.41-.14-.68-.45-.93-.77-2.31-1.69-5.21-2.35-7.34-4.33-.04-.04-.13-.05-.16-.1-1.61-2.59-4.2-2.01-6.6-2.02-5.36,0-10.71,0-16.07,0-.37,0-.75,0-1.12,0-.39,0-.86-.05-.83-.51.03-.41.48-.5.88-.49,2.18.04,4.36.11,6.54.12,4.79.02,9.58,0,14.42,0-.96-4.61.27-8.43,2.83-11.91.48-1.68,1.31-3.18,2.41-4.51,1.97-2.39,3.19-4.97,2.59-8.19-.19-.99.13-1.68,1.33-1,.79.74.68,1.79.91,2.78,1.69-.86.76-1.54-.09-2.21-.57-.74-1.47-1.11-2.05-1.83-.41-.5-1.08-.9-.72-1.72.26-.66.61-.44.98-.1,6.17,5.6,13.66,7.86,21.75,8.64.18.02.35.12.53.18.62,1.31-.45,1.22-1.17,1.41-2.15.09-4.16-.63-6.22-1.06-1.53-.3-3.01-.81-4.52-1.22-1.12-.37-2.2-.86-3.31-1.28-1.18-.96-2.29-1.03-3.28.29-1.18,1.15-2.02,2.6-3.25,3.71-.55.74-1.13,1.45-1.61,2.23-1.15,1.59-2.34,3.15-3.28,4.87-.53.79-1.1,1.55-1.44,2.44-.61,1.59-1.16,3.19-1.35,4.89-.06.79.06,1.56.32,2.31.93,2.76,3.31,3.96,5.65,5.19.82.32,1.59.73,2.33,1.2,1.23.83,2.62,1.3,3.98,1.86.47.21.99.27,1.47.42.83.4,1.56.55,1.8-.66.32-1.62,1.23-2.96,2.04-4.36.21-.31.47-.58.73-.85,1.77-1.87,1.73-2.05-.77-2.73-1.46-.18-2.69-.81-3.74-1.83-1.3-1.36-1.64-2.89-.81-4.62.36-.68.76-1.32,1.39-1.79,1.33-.36,1.33-1.81,2.14-2.6.74-.16,1.16.13,1.24.89-.12,1.11-.12,2.23-.18,3.35-.07.69-.31,1.36-.33,2.06-.28,1.74.52,2.54,2.18,3.06,3.21,1.01,6.31,2.41,9.79,1.96,2.15.14,1.7-1.72,2.19-2.86.32-.9.56-1.84,1.36-2.48.88-.56,1.73-.53,2.55.13.86.97.63,2.06.35,3.16q-.27,2.1,2.79,2.05c2.11-.05,4.21-.05,6.31-.03.75-.19,1.89.66,2.15-.83.02-.59,0-1.17.01-1.75-.02-1.05-.03-2.1,0-3.15-.02-1.06-.01-2.12.3-3.15.05-1.04.23-2.05.43-3.07,0-.48,0-.96.15-1.42.35-1.07.93-1.13,1.67-.35.3.49.38,1.07.6,1.6.33.9.65,1.8,1.09,2.66.12.23.23.47.32.71.3,1,.85,1.9,1.22,2.87.23.68.45,1.36.7,2.03.24.7.46,1.4.5,2.15q0,2.69,2.56,2.25c.68-.12,1.38-.21,2.04-.08,1.85.37,2.83-.43,3.21-2.17.27-.71.49-1.42.69-2.15.4-1.42.21-2.88.26-4.33,0-.83-.23-1.61-.51-2.38-.41-1.43-1.1-2.72-1.86-3.98-.52-.68-.98-1.39-1.52-2.05-1.48-1.53-2.64-3.37-4.33-4.71-.55-.47-1.06-1.06-1.89-.5-2.2,1.18-4.63,1.58-7.02,2.15-.79.12-1.56.33-2.35.44-1.56.11-3.08.53-4.65.49-2.36.27-4.75.92-6.99-.51Z" fill="#020202" stroke-width="0"/>
  <path d="M33.51,50.38c-.39-.27-.78-.53-1.18-.8-.51-1.02-1.01-2.03-1.52-3.05-.75-.47-1.05-1.22-1.19-2.03-.59-3.33-.4-6.66.09-9.98,2.21-10.74,8.85-17.82,18.67-22.04,4.95-2.13,10.26-2.48,15.63-2.04,6,.49,11.64,1.97,16.8,5.2,3.01,1.88,5.03,4.67,7.05,7.41,1.81,2.45,3.56,4.95,5.13,7.59,2.6,4.36,3.38,9.08,3.38,14.01,0,2.62-.9,5.01-2.25,7.33.73.44,1.72.53,2.32,1.28.1.36-.12.51-.4.63-1.51-.35-2.14.24-2.42,1.79-.34,1.88-.94,3.72-1.49,5.57-.3,1.01-.81,1.95-1.69,2.62-.28.12-.55.13-.8-.06.59-2.28,1.3-4.54,1.74-6.84.92-4.78,1.72-9.6-.59-14.26-1.73-3.47-4.26-6.29-7.36-8.56-4.84-3.55-9.97-6.47-16.09-7.29-4.59-.62-8.77.27-12.72,2.64-5.46,3.28-9.62,7.9-13.34,12.93-1.44,1.95-3.68,3.22-4.53,5.62-.19.4-.02.89-.32,1.25-.37.44-.46,1.39-1.29,1.05-.74-.3-.51-1.06-.26-1.64.62-1.43,1.25-2.87,2.12-4.16,4.27-6.32,9.51-11.64,15.91-15.87,4.7-3.1,9.71-3.87,15.17-3.08,2.87.42,5.62,1.11,8.21,2.39,2.75,1.16,5.37,2.56,7.69,4.46,1.32,1.14,2.62,2.29,3.89,3.5,3.72,3.52,5.54,7.9,6.05,12.91,2.3-5.93.45-14.25-4.76-21.43-1.58-2.63-3.72-4.84-5.37-7.42-.28-.43-.59-.8-1.08-1-.16-.07-.3-.17-.42-.29-.59-.83-1.38-1.44-2.25-1.96-1.04-.6-1.91-1.54-3.2-1.66-1.61-.29-3.08-1.01-4.6-1.56-2.54-.94-5.16-1.39-7.85-1.54-2.51-.33-5.02-.3-7.53,0-2.72.52-5.47.92-8.11,1.8-2.04.75-3.87,1.91-5.73,3.02-4.45,3-7.75,6.99-10.06,11.81-.47.86-.89,1.74-1.11,2.7-.29,1.19-.51,2.39-.7,3.59-.6,4.93.02,9.63,2.58,13.97.59,1.01.56,1.02-.26,1.47Z" fill="#040201" stroke-width="0"/>
  <path d="M38.72,68.99c-.4-.13-1.14-.61-.9.34.9,3.49-.46,6.28-2.59,8.84-1.1,1.33-1.96,2.79-2.83,4.26-.38-.83.35-1.31.56-1.96.29-.88-.4-.04-.55-.23-2.03.2-4.02.75-6.07.82-.49.02-.99.07-1.49.06-2.34-.06-2.8-.67-2.13-2.87,1.22-3.98,3.66-7.04,7.2-9.17,1.91-1.15,3.76-2.43,5.91-3.15.35.12.66.04.94-.17.5,1.64,2.29,2.08,3.13,3.39-.44.26-.83.17-1.19-.15Z" fill="#6d2f00" stroke-width="0"/>
  <path d="M89.64,63.81c.28-.02.57-.05.85-.07.08.05.17.1.25.14,5.34,4.11,7.3,9.74,7.34,16.24,0,.43-.06.88.17,1.28-.72.75-1.54.93-2.47.43.14-.26,1.63,0,.48-.65-2.59-1.49-4.59-3.48-6.42-5.79-1.35-1.7-2.08-3.66-3.04-5.52-.37-.71.18-1.23.59-1.82.63-.92,1.75-1.68,1.29-3.08.61-.16.63-.79.97-1.17Z" fill="#6c2f00" stroke-width="0"/>
  <path d="M39.85,101.68c.39.13.78.27,1.16.4.32.55.52,1.13.51,1.78-.12,6.43.63,12.84.75,19.26.05,2.65.14,2.83,2.8,3.2,7.36,1.02,14.73,1.87,22.17,2.11,1.93.06,3.85.34,5.79.37,5.88.1,11.73-.21,17.57-.75.62.17,1.48-.13,1.69.85-2.34,1.03-4.86.95-7.32,1.12-14.13.97-28.12-.51-42.08-2.46-1.6-.22-2.18-.88-2.23-2.53-.21-7.79-.54-15.57-.82-23.35Z" fill="#783e14" stroke-width="0"/>
  <path d="M90.49,63.73c1.53-3.03,2.24-6.29,2.86-9.6.42-2.24,1.69-.64,2.62-.44,1.7.89,2.37,2.39,1.69,4.17-.83,2.15-2.11,3.96-4.47,4.63.89.12,1.44-1.1,2.45-.71-.24,1.73-1.8,2.04-2.96,2.78-.94.27-1.64-.14-2.21-.84l.03.02Z" fill="#fcecf1" stroke-width="0"/>
  <path d="M92.29,128.91c-.45-.46-1.06-.21-1.58-.35.89-1.19,1.07-2.54,1.06-4.01-.08-6.76.54-13.51.4-20.28-.04-1.91-.17-3.56-2.08-4.5.14-.3.29-.6.43-.89,3,.39,3.33.58,3.28,3.4-.13,8.23-.4,16.46-.58,24.7-.02.83-.53,1.33-.92,1.94Z" fill="#7d441c" stroke-width="0"/>
  <path d="M35.84,65.92c-1.14,1.4-2.86,1.91-4.36,2.73-4.11,2.26-7.01,5.47-8.41,9.99-.42,1.34-.28,2.08,1.42,2.03,2.24-.07,4.45-.27,6.63-.79.52-.12,1.09-.56,1.29.36-3.14,1.52-6.47,1.62-9.83,1.16-1.32-.18-.9-1.31-.69-2.11,1.26-4.99,4.22-8.69,8.66-11.24,1.46-.83,2.94-1.63,4.41-2.44.31.04.67-.04.87.32Z" fill="#090706" stroke-width="0"/>
  <path d="M90.46,63.71c.74.28,1.48.56,2.21.84,3.08,2.21,4.6,5.37,5.34,8.95.4,1.93.59,3.91.89,5.86.12.8-.11,1.46-.65,2.03-.89-.19-.72-.91-.69-1.49.16-3.9-.91-7.47-2.76-10.87-.85-1.57-1.88-2.91-3.4-3.86-.53-.33-1.07-.69-.94-1.46Z" fill="#100904" stroke-width="0"/>
  <path d="M32.36,49.86c.18.64.34,1.14-.71,1.21-2.6.16-4.52,2.65-4.26,5.38.3,3.2,1.73,4.38,5,4.15.11,0,.23.1.34.15.15,1.18-.1,1.57-1.5,1.32-3.95-.72-5.98-4.05-4.59-7.89,1.34-3.71,2.37-4.48,5.71-4.31Z" fill="#090909" stroke-width="0"/>
  <path d="M33.82,60.77c-.23-1.86-.52-3.71-.3-5.59.09-.74.2-1.49.39-2.21.13-.48.41-1.02,1.03-.81.59.2.63.83.42,1.26-1.39,2.75-.76,5.44.21,8.1.23.62.28,1.07-.34,1.43-.84-.49-.87-1.51-1.43-2.19Z" fill="#0e0d0d" stroke-width="0"/>
  <path d="M95.64,61.78c-.82.42-1.63.88-2.48,1.23-.39.16-1.01.71-1.28.04-.27-.67.5-.67.93-.8,1.54-.48,2.72-1.39,3.59-2.75,1.5-2.34,1.42-3.7-.44-5.8.16-.14.31-.29.47-.43,1.86,1.34,2.44,3.56,1.33,5.49-.61,1.06-1.41,2.02-2.13,3.02Z" fill="#1f1e1e" stroke-width="0"/>
  <path d="M29.71,34.52c-.1,3.14-.15,6.27.33,9.38.14.9.51,1.76.78,2.63-.84.02-1.64-.37-1.7-1.16-.29-3.64-.84-7.31.6-10.86Z" fill="#c7b5a6" stroke-width="0"/>
  <path d="M64.64,11.64c3.44-.22,6.59.91,9.73,2.1.98.37,2,.67,3,1,.94.61,1.82,1.29,2.74,1.93,1.01.5,1.86,1.18,2.49,2.13v-.02c-.02.83-.62.61-1.07.55-.68-.09-1.31-.4-1.97-.57-1.98-.49-2.57-.08-2.79,1.97-.05.44-.06.9-.37,1.23-1.6,1.66-1.1,3.4-.2,5.15.24.47.42.91.02,1.38-4.87-2.42-10.07-2.97-15.39-2.51-2.5.21-4.78,1.33-6.87,2.67-5.95,3.82-11.11,8.5-15.2,14.34-1.22,1.75-2.38,3.5-3.24,5.43-.23.53-.77,1.04-.33,1.76,1.11-.28.97-1.48,1.58-2.11-.08,1.66-.2,3.17-2.48,3.3-1.06.06-.69-.52-.77-.97.64-.22.45-.48.14-.92-3.11-4.43-3.57-9.39-2.84-14.58.13.13.21.29.21.49,0,.28.02.56,0,.66-.2-1.28.36-2.62.6-4,.23-.82.56-1.6,1.08-2.28,1.11-1.47,1.96-3.17,3.92-3.82,1.31-.43,2.36-.19,3.2.8,1.69,1.98,4.04,3.05,6.09,4.53.72.52,1.55.58,2.24-.08.75-.73.9-1.63.46-2.58-.47-1.04-1.29-1.83-2-2.7-.28-.34-.83-.61-.87-.95-.34-2.83-2.69-5.23-1.8-8.32.65-1.32,2.14-1.49,3.17-2.29.42-.33,1.09-.26,1.34-.85,2.62-1.13,5.39-1.54,8.2-1.83,2.66-.27,5.32-.27,7.98,0Z" fill="#6d2f00" stroke-width="0"/>
  <path d="M76.61,66.47c-3.5-.39-6.06-2.06-7.39-5.4-.18-.45-.31-.72-.94-.87-3.52-.83-7.04-1.51-10.68-1.25-.47.03-1.07.51-1.27-.38,2.79-1.17,5.62-.55,8.43-.11,1.28.2,2.53.57,3.79.86.94-5.22,2.93-6.8,9-7.22.09-.29-.1-.44-.28-.61-.33-.32-1-.64-.48-1.16.51-.51.85.19,1.2.48.72.59,1.38,1.27,2.13,1.82,4.33,3.18,4.99,5.62,2.78,10.39-1.39,3.73-3.96,4.57-6.3,3.46Z" fill="#070607" stroke-width="0"/>
  <path d="M56.34,58.56c.33.42.83.31,1.27.38-1.01.24-1.65.57-1.91,1.86-.46,2.29-3.2,4.25-5.59,4.48-.54.05-1.07.23-1.6.35-2.45.64-4.94-.79-5.93-3.39-1.31-3.48-.14-6.95,2.9-8.59,1.42-1.51,3.08-.47,4.64-.44,2.67.17,4.45,1.53,5.49,3.97.2.48.14,1.13.75,1.39Z" fill="#090808" stroke-width="0"/>
  <path d="M76.61,66.47c3.18.81,4.52-1.72,6.3-3.46,1.8.98,1.96,1.95.58,3.4-1.4,1.48-3.28,1.61-5.1,1.72-.92.05-1.45-.81-1.79-1.66Z" fill="#fca6c5" stroke-width="0"/>
  <path d="M62.2,74.36c2.21.35,4.43.3,6.65.14.47.98.38,1.59-.6,1.84-2.76.7-5.57,1.08-8.4.41-.58-.14-1.2-.41-1.14-1.22.69-.03,1.45,0,1.33-1.06.73.03,1.46.2,2.17-.11Z" fill="#0f0bfc" stroke-width="0"/>
  <path d="M42.57,62.23c1.49,1.98,3.32,3.36,5.93,3.39-1.63,1.89-6.56,1.1-7.29-1.24-.32-1.04.51-1.69,1.36-2.16Z" fill="#f7a2c1" stroke-width="0"/>
  <path d="M67.42,68.12c-.23.55-.63.58-1.03.26-.64-.52-1.21-.72-1.96-.13-.34.27-.9.13-1.17-.26-.48-.7-.94-.94-1.57-.2-.04.05-.12.11-.15.1-1.9-.84-3.78.12-5.67.07-.37,0-.48-.37-.35-.7.25-.62.76-1.27,1.37-.85.89.6,1.44.54,2.18-.18.36-.35,1-.12,1.4.16.53.36.9.44,1.47.02.46-.33,1.16-.31,1.51.23.49.78.87.55,1.46.13.45-.32,2.52.89,2.51,1.37Z" fill="#0f0e0f" stroke-width="0"/>
  <path d="M50.1,53.2c-1.55.15-3.09.29-4.64.44-.5-.79-.96-1.45.6-1.57,1.08-.08,2.15-.48,3.21-.81.46-.14,1-.6,1.28,0,.33.73-.37.89-.91,1.06-.35.11-.7.24-1.24.42.69.19,1.2.32,1.7.46Z" fill="#2d2828" stroke-width="0"/>
  <path d="M90.1,111.33c.63,4.78.21,9.58.2,14.37,0,1.03-.78,1.25-1.65,1.42-4.93.95-9.92.79-14.9.82-9.64.05-19.14-1.24-28.65-2.55-1.58-.22-2.11-.98-2.17-2.44-.24-5.85-.48-11.71-.83-17.55-.05-.91.69-1.79.02-2.68.49.04,1.01-.06,1.46.26-.04.64.19,1.27.16,1.91,0,2.07,0,4.15,0,6.22,0,.31.01.62,0,.92.42,2.58.36,5.18.35,7.78,0,.61-.07,1.27.66,1.59.2.21.3.47.35.75.05.27.05.54,0,.82-.09.37-.19.72-.65.91,1.03.13,2.07.25,3.04.63.32.07.68.3.85-.22.15-.52.06-1.17.75-1.41.62.09,1.17.39,1.74.61.43.31.59.66.16,1.09-.11.03-.24,0-.34.03-.23.09-.16.34-.08.11.08-.24.34.16.15,0,.27,0,.53,0,.79-.03.3-.06.54-.27.84-.3.41.09.58.5.92.68.49.27,1.03.25,1.56.28.4.04.78.16,1.18.18.16,0,.32,0,.49.01.25,0,.5,0,.75.02.91.16,1.86.42,2.37-.73.16-.08.32-.09.49-.03.32.29.37.72.54,1.08.35.56.93.34,1.43.39.56-.01,1.11.03,1.66-.1.47-.21.51-.85,1.01-1.02.18-.02.43.15.5-.18-.04-6.14-.25-12.28.13-18.4,1.7-.88,0-1.77,0-2.65-.1-.65.34-1.61-.92-1.58-.83-.67-.88-1.43-.27-2.26,3.29-.16,6.55.45,9.85.26,1.42-.08,2.85,0,4.27-.24.79-.13,1.62-.24,2.28.41-.17.48-.35.96-.52,1.44-.86.24-.36,1.21-.88,1.64-.9,0-.62-1.01-1.16-1.31-.38-.2-.78-.19-1.19-.16-.31.04-.62.09-.9.24-.78.73-.24,2.28-1.64,2.62-.23.09.06-.03-.18.05-.45.15-1.26.18-1.01.79.36.88.87-.15,1.35-.14.69.35.61.92.46,1.52-.13.3-.35.52-.64.67-.62.26-1.25.27-1.89.1-.43-.14-.72-.43-.87-.86.27-1.53,0-3.13.38-4.83-.43,2.4-.29,4.64-.23,6.88-.45,1.46-.04,2.99-.35,4.45-.48,1.76-.14,3.55-.24,5.32.04,2.26-.15,4.52-.03,6.78.15.07.29.15.43.24.49.56,1.14.59,1.82.53.31.03.6.12.92.12.23-.03.45-.08.68-.12.24-.03.48-.01.72.03.56.11,1.12.23,1.67,0,.45-.21.46-.88,1.01-.98.43.11.52.56.83.79.24.18.52.28.82.31.47.04.95.04,1.42,0,.74.02.78-.78,1.26-1.06.31-.11.51.2.79.21.25-.14.49-.33.79-.13.19.09.35.39.58.2.14-.12-.04-.3-.18-.4-.24-.17-.54-.23-.79-.39-.45-.45-.36-.84.14-1.18.48-.21.97-.22,1.47-.11.18.05.35.14.5.26.04.04.11.09.11.14-.16,1.34.71,1.49,1.71,1.48,1.12-.36.98-1.33.99-2.17.04-3.03,0-6.07.02-9.1,0-.99-.05-1.99.49-2.88.28-.05.56-.1.85-.15Z" fill="#72370c" stroke-width="0"/>
  <path d="M83.39,71.16c.91-.67,1.28.17,1.78.65.22.38.41.76.42,1.22.03,2.23-3.37,6.61-5.65,7.29-.19-.28-.27-.75-.76-.63-.38.09-.32.47-.35.76-.04.36-.09.73-.13,1.09-2.25,2.49-5.23,3.74-8.37,4.46-10.93,2.51-19.8-1.22-27.05-9.38-1.06-1.19-2.08-2.52-1.94-4.31,1-1.73,2.18-1.63,3.47-.35.72.59,1.37,1.22,1.91,2.01,4.35,6.36,10.64,8.91,18.1,8.88,5.49-.02,10.14-2.19,14-6.08.18-.18.33-.4.54-.51,2.15-1.06,3.29-2.92,4.02-5.1Z" fill="#0701fe" stroke-width="0"/>
  <path d="M87.32,112.62c-1.35-.97-1.36-2.28-1.7-3.43-.14-.48-.26-.96-.38-1.44-.08-.33-.28-.66-.59-.6-.4.08-.58.47-.44.88.4,1.15.4,2.33.36,3.51-.02.69-.06,1.63-.72,1.79-.85.21-1.1-.8-1.49-1.38-.43-.64-.47-1.4-.47-2.16,0-.35.06-.85-.47-.83-.46.01-.52.49-.53.85-.03,1.22.37,2.48-.3,3.66-1.26-1.73-1.67-4.75-.83-7.37.91-2.83,1.61-5.73,3.23-8.31.99-1.58,6.16-3.13,7.58-2.12.48.34.2.63-.02.91-2.03,2.58-2.15,5.42-1.35,8.49.43,1.66.47,3.41.09,5.17-.76-.28-.77-.99-1.07-1.49-.29-.48-.2-1.53-.98-1.28-.85.27-.21,1.05-.04,1.59.34,1.08.51,2.17.13,3.57Z" fill="#fdecec" stroke-width="0"/>
  <path d="M41.35,72.3c4.16,9.66,17.69,16.53,29.32,13.15,2.9-.84,5.46-2.39,8.03-3.92-.13,1.14-.06,2.31-.53,3.39-2.47,1.28-4.9,2.63-7.59,3.48-1.59.51-3.12.74-4.73.38-.68-.65-1.47-.55-2.28-.34-4.26-.54-8.54-.97-12.46-2.96-1.16-.59-2.41-1.06-3.05-2.33-.12-.63-.42-.92-1.07-.61-.54.38-1.1.2-1.59-.04-3.01-1.49-5.83-3.22-7.43-6.36,1.03-1.37,1.98-2.8,3.38-3.85Z" fill="#fdfdfe" stroke-width="0"/>
  <path d="M57.75,104.13c-1.4.04-2.12-.45-2.86-.86-.41-.23-.82-.79-1.28-.18-.46.62.26.85.55,1.16.29.3.7.5,1.08.75-1.8.64-3.82.35-5.55-.78-2.85-1.86-2.99-2.53-.99-5.47,1.08-1.59,2.09-3.3,4.12-3.88.39-.11.76-.46,1.24-.16,4.37,2.69,8.21,5.93,10.72,10.52-1.63-.51-2.38-1.97-3.46-3.07-.35-.35-.63-1.27-1.24-.72-.53.47.26.93.56,1.34.92,1.27,2.18,2.33,2.72,4.19-1.9-.69-2.95-2.02-4.19-3.1-.84-.74-1.7-1.44-2.56-2.16-.27-.23-.54-.62-.92-.21-.36.39-.01.68.25.94.48.47.97.92,1.8,1.71Z" fill="#fdecec" stroke-width="0"/>
  <path d="M83.39,71.16c.34,3.56-2.72,4.76-4.74,6.55-9.09,8.02-20.55,7.28-29.35.17-1.94-1.57-3.12-3.84-4.47-5.92,1.13.41,2.26.83,3.38,1.24,2.4,3.38,5.58,5.76,9.53,6.87,3.14.88,6.42.66,9.63.1,2.67-.47,5.2-1.15,7.03-3.46.79-1,1.03-2.26,1.87-3.19,2.34-.9,4.97-.91,7.12-2.37Z" fill="#fdfdfe" stroke-width="0"/>
  <path d="M38.62,99.71c-.76-.37-1.51-.75-2.27-1.12-.59-1.95,1.2-3.08,1.77-4.94-2.66.55-5.15.77-7.56-.24-.31-.88-.66-1.75-.37-2.71,1.06-.76,2.28-.42,3.42-.42,1.69,0,3.31-.2,4.87-1.08-1.7-.47-3.29-1.09-4.84-1.8-.84-.39-1.7-.8-1.95-1.83.21-.98.76-1.75,1.5-2.4.7-.3,1.16.21,1.69.49,2.21,1.16,4.5,2.03,7.04,2.1.78.02,1.66-.08,2.04.9-.73,1.67-.42,3.14.84,4.43.29.61-.04,1.07-.4,1.51-1.75,2.15-3.78,4.1-5.03,6.64-.14.28-.42.44-.76.46Z" fill="#0701fe" stroke-width="0"/>
  <path d="M76.28,73.52c-.15,2.32-2.98,5.92-5.3,6.4-3.69.76-7.42,1.67-11.22,1.1-4.6-.69-8.32-3.04-11.29-6.6-.29-.35-.4-.77-.26-1.22,1.41.38,2.83.77,4.24,1.15,1.01.47,1.98,1.02,2.97,1.53,5.83,2.96,11.46,2.74,16.86-1.07.51-.36,1.12-.54,1.64-.88.76-.27,1.54-.43,2.35-.4Z" fill="#0701fe" stroke-width="0"/>
  <path d="M48.05,83.15c3.9,2.65,8.21,4.03,12.9,4.39.9.07,1.86.25,2.61.9-.4.8-.8,1.6-1.2,2.4-3.44.41-6.66-.61-9.84-1.66-1.75-.58-3.6-1.09-4.8-2.71.05-1.11-.1-2.25.33-3.32Z" fill="#0802fd" stroke-width="0"/>
  <path d="M73.39,98.02c-2.24,0-4.49.03-6.73-.03-.5-.01-1.51.48-1.44-.52.05-.85-.11-2.15,1.39-2.23,1.31-.07,2.61-.16,3.92-.17,3.43-.02,6.86-.05,10.28.03.54.01,1.81-.7,1.64.61-.12.96-.01,2.47-1.95,2.33-2.36-.18-4.73-.04-7.1-.04,0,0,0,0,0,.01Z" fill="#fafafa" stroke-width="0"/>
  <path d="M43.96,86.67c-2.52-.52-5.16-.46-7.55-1.7-1.09-.57-2.23-1.04-3.22-1.79.73-1.83,1.87-3.39,3.22-4.81.82.11,1.27.76,1.76,1.28,1.81,1.91,3.82,3.53,6.25,4.6.4.17.81.35.84.88-.44.51-.87,1.02-1.31,1.53Z" fill="#fcfcfe" stroke-width="0"/>
  <path d="M79.94,80.31c2.13-1.59,3.75-3.58,4.88-5.99.39-.82.57-1.63.35-2.52,1.85,1.4,3.13,3.33,4.63,5.05-2.06,2.38-4.51,4.15-7.64,4.84-.6.13-1.2.31-1.8.01-.38-.39-.72-.8-.42-1.39Z" fill="#fcfcfe" stroke-width="0"/>
  <path d="M65.84,88.79c3.75-.33,7.23-1.45,10.4-3.5.57-.37,1.21-.65,1.92-.36-.07.92-.15,1.84-.22,2.76-2.08,2.41-5.07,3.02-7.9,3.84-1.3.38-2.75,1.02-4.09-.05-.06-.89.22-1.8-.11-2.68Z" fill="#0802fe" stroke-width="0"/>
  <path d="M38.62,99.71c1.36-2.79,3.33-5.13,5.46-7.35.35-.36.62-.76.73-1.25,1.08,1.01,2.46,1.35,3.82,1.77-.56,1.17-1.78,1.7-2.57,2.65-1.53,1.85-2.85,3.76-2.93,6.28-1.55-.59-3.2-.98-4.51-2.09Z" fill="#fcfcfd" stroke-width="0"/>
  <path d="M73.92,73.92c-2.95,4.23-12.44,5.5-16.24,3.51-1.8-.94-3.81-1.5-5.23-3.08,2.09.39,4.17.78,6.26,1.17.42.77,1.19.83,1.92.87,2.4.14,4.79-.09,7.17-.42.92-.13,1.34-.54,1.06-1.48,1.69-.19,3.38-.38,5.07-.58Z" fill="#fafafd" stroke-width="0"/>
  <path d="M45.27,85.14c-3.58-1.43-6.52-3.71-8.86-6.77.28-.91.88-1.59,1.56-2.22,1.69,1.23,2.78,3.09,4.58,4.24,1.41.91,2.79,1.78,4.44,2.16.09,1.3-.29,2.29-1.71,2.59Z" fill="#0802fd" stroke-width="0"/>
  <path d="M93.15,82.75c.5.75.58,1.59.55,2.45-1.42,1.7-3.58,1.79-5.46,2.33-1.64.47-3.41,1.22-5.18.29-.4-.97-1.2-1.77-1.24-2.9.26-.66.87-.67,1.4-.66,2.47.06,4.76-.68,7.06-1.45.94-.32,1.9-.63,2.87-.06Z" fill="#0803fd" stroke-width="0"/>
  <path d="M79.8,82.65c.86,3.5,2.88,5.99,3.23,9.11.09.77.42,1.91-.41,2.17-1.08.33-2.33.15-3.5.09-.3-.02-.27-.5-.25-.81.21-3.33-.17-6.71.93-10.56Z" fill="#fafafa" stroke-width="0"/>
  <path d="M80.36,81.7c3.3-.67,6.24-2.03,8.59-4.52.19-.2.57-.22.86-.33.44.64.88,1.28,1.33,1.92.02.32.02.66-.2.88-2.61,2.63-5.4,4.89-9.44,4.6-.38-.85-.76-1.7-1.14-2.55Z" fill="#0802fd" stroke-width="0"/>
  <path d="M43.12,101.8c-.49-.75-.38-1.51-.09-2.29,1.07-2.88,2.99-5.03,5.58-6.64.47.11.96.17,1.41.34,1.07.4,1.28,1.03.39,1.85-.63.58-1.28,1.15-1.91,1.72-.99,1.18-1.86,2.42-2.35,3.91-.28.85-.72,1.59-1.82,1.47-.41-.12-.81-.25-1.22-.37Z" fill="#0903fd" stroke-width="0"/>
  <path d="M47.72,86.47c3.96,2.13,8.13,3.58,12.66,3.9.67.05,1.32.31,1.98.47-.11.67-.28,1.35-.32,2.02-.09,1.3-.82,1.53-1.91,1.24-1.7-1.3-3.68-1.98-5.69-2.58-2.43-.72-4.73-1.73-6.96-2.93.08-.71.17-1.42.25-2.13Z" fill="#fafafd" stroke-width="0"/>
  <path d="M47.48,88.6c.42.05.91-.01,1.26.17,2.94,1.53,6.16,2.28,9.21,3.5.89.36,1.89.7,2.18,1.84-3.4.67-6.46-.55-9.53-1.73-.29-.11-.56-.29-.85-.37q-2.61-.79-2.28-3.39Z" fill="#0902fd" stroke-width="0"/>
  <path d="M80.6,100.5c-5.24.59-10.5.05-15.74.24-.54.02-.6-.29-.66-.67.24-.74.72-1.06,1.53-1.05,4.79.03,9.57.04,14.36.02,1.72,0,.41.95.51,1.46Z" fill="#f0edeb" stroke-width="0"/>
  <path d="M83.06,87.83c3.72-.17,7.22-1.23,10.64-2.62.5,1.61.35,3.19-.22,4.75-3.28.12-6.56.42-9.81-.34-.2-.6-.41-1.19-.61-1.79Z" fill="#f9f9fd" stroke-width="0"/>
  <path d="M31.69,85.58c2.31,1.91,5.17,2.56,8.05,3.53-1.89,1.25-3.86,1.73-6.02,1.61-1.17-.06-2.35-.01-3.53-.02.1-1.83.68-3.51,1.5-5.13Z" fill="#fafafd" stroke-width="0"/>
  <path d="M65.95,91.47c4.44.15,8.26-1.68,11.99-3.79.1,1.16.19,2.33-.01,3.49-3.26.37-6.28,1.51-9.22,2.89-.24.03-.48.08-.72.09q-2.84.11-2.04-2.68Z" fill="#f8f8fd" stroke-width="0"/>
  <path d="M30.56,93.42c2.52.09,5.06.49,7.54-.35.26-.09.7-.1.86.05.35.32.02.66-.19.95-1.03,1.39-2.13,2.73-2.42,4.52-2.45-1.14-4.68-2.53-5.79-5.17Z" fill="#f8f8fc" stroke-width="0"/>
  <path d="M81.5,84.25c3.91-.61,7.17-2.35,9.63-5.48,1.08,1.12,1.62,2.51,2.01,3.99-1.63.05-3.09.77-4.61,1.24-2.19.68-4.44.94-6.72.93-.1-.23-.21-.45-.31-.68Z" fill="#f9f9fd" stroke-width="0"/>
  <path d="M92.69,91.97c-.17.59-.33,1.18-.52,1.76-.28.87-.7,1.32-1.76.93-2.18-.8-4.21.38-6.41.75.06-1.22.11-2.31.16-3.4,1.76-.87,3.53-1.54,5.41-.29.45.3.95.15,1.44.04.58-.12,1.2-.43,1.69.21Z" fill="#f9f9fb" stroke-width="0"/>
  <path d="M92.69,91.97c-.51-.17-.93.05-1.4.23-.5.2-1.33.48-1.58.25-1.53-1.43-3.05-1.12-4.67-.27-.21.11-.59-.11-.89-.17-.16-.8-.32-1.59-.47-2.39.56-.35,1.15-.35,1.79-.28,1.98.22,3.97.54,5.94,0,.86-.24,1.36.5,2.08.62-.27.67-.53,1.34-.8,2.01Z" fill="#0903fd" stroke-width="0"/>
  <path d="M64.89,125.25c-.49.36,0,1.23-.76,1.45-.11-.14-.2-.29-.27-.45-.26-.6.11-2.05-1.37-1.03-.1.51-.09,1.05-.46,1.47-.66,0-1.42.42-1.87-.45.91-.7.85-1.72.92-2.71.08-1.16-.2-2.36.3-3.48.11-.14.25-.26.41-.34q2.48-.29,2.18-3.43c-.03-.35.05-.7.07-1.05q.1-2.54-2.39-2.61c-.19-.11-.32-.26-.4-.45-.26-1.54-.54-3.08.24-4.56,1.17.46,2.34,1.38,3.48-.06,1.04.4.54,1.32.49,1.92-.16,1.8-.11,3.6-.14,5.4,0,2.82.01,5.65,0,8.47,0,.65.18,1.37-.42,1.9Z" fill="#885734" stroke-width="0"/>
  <path d="M61.58,119.99c-.07,1.84-.21,3.68-.17,5.52.02,1.2-.54.99-1.24.73-.04-.46-.08-.91-.11-1.37-.51-.61-.48-1.31-.39-2.03.56-2.62.16-5.28.26-7.92.06-1.66,0-3.33,0-4.99.31-1.02-.69-2.44.93-3.05.21.25.42.49.63.74.05,1.62.09,3.25.14,4.87.63,2.51.7,5.01-.05,7.51Z" fill="#eee7e2" stroke-width="0"/>
  <path d="M49.2,123.01c-.67.48-.17,1.22-.39,1.79-1.57.19-1.06-1.05-1.25-1.81,0-1.58,0-3.17,0-4.75.26-2.04-.63-4.03-.29-6.08.09-.5.13-1,.02-1.51-.15-1.04-.12-2.09-.11-3.14.24-.99-.55-2.28.85-2.93.4.1.63.38.82.71.75.92.31,2.11.73,3.1.19,1.08.2,2.16,0,3.24-.42,1.23-.21,2.5-.25,3.76,0,.32,0,.64,0,.95.07,1.59-.2,3.2.23,4.78.1.67.17,1.34-.38,1.88Z" fill="#eee7e2" stroke-width="0"/>
  <path d="M68.71,94.06c2.04-2.46,5.3-2.08,7.86-3.34.45-.22.96.14,1.36.46,0,.6,0,1.19-.01,1.79-.44.87-1.34.83-2.1,1.07-2.37,0-4.74.02-7.11.03Z" fill="#0903fa" stroke-width="0"/>
  <path d="M47.77,111.83c.08,2.11.15,4.23.23,6.34-.18.25.03.8-.55.76-.42-.24-.5-.67-.54-1.1-.2-1.81-.39-1.9-2.06-.89-.17.32-.3.79-.71.75-.5-.05-.34-.55-.35-.88-.08-1.57.22-3.17-.5-4.67,0-.28.01-.56.02-.85.14-2.21.22-4.43-.06-6.64.02-.58-.18-1.2.33-1.68.27.29.55.59.82.88.53.7.44,1.5.34,2.29-.09.46-.11.93,0,1.39.19,1.23.04,2.49.26,3.71.02.28-.08.54-.1.82.03.56-.08,1.12,0,1.68.07.51.38.78.87.81.47.03.88-.12,1-.64.11-.46-.01-.84-.4-1.16-.42-.35-1.38-.05-1.26-1.05.92-.63,1.82-.7,2.68.11Z" fill="#b2937a" stroke-width="0"/>
  <path d="M62.94,100.43c-1.09-.43-1.15-1.12-1.02-1.8.49-2.55,1-5.1,1.56-7.64.12-.54.14-1.48.99-1.28.93.23.53,1.17.39,1.73-.69,2.95-1.45,5.89-1.92,8.99Z" fill="#1db801" stroke-width="0"/>
  <path d="M49.22,108.46c-.82-.97-.33-2.1-.36-3.16.14.04.28.08.42.11,1.02,2.1,1.26,2.19,2.91,1.05.55.03,1.11.05,1.66.08.25.33.33.75.6,1.07.4.59,2.33.08,1.28,1.73-.47.25-1,.19-1.48.37q-.64,1.14,1.06,1.36c.17.07.31.18.42.33.1.28.08.54-.09.79-.8.42-1.71.59-2.45,1.13-.99-.54-.59-1.52-.73-2.33-.11-.66.29-1.31-.01-1.96-.34-.07-.66-.14-1-.14-.75-.08-1.55.06-2.22-.44Z" fill="#83502c" stroke-width="0"/>
  <path d="M87.11,113.68c0,4.22,0,8.43,0,12.65-1.14-.33-1.32-1.19-1.21-2.21-.01-.1-.03-.2-.04-.3-.29-3.26.52-6.54-.18-9.79.04-.43.07-.87.68-.85.25.17.51.33.76.5Z" fill="#bb9f8a" stroke-width="0"/>
  <path d="M65.03,114.79c-.15-1.77.01-3.53.16-5.29.05-.64.25-1.34-.22-1.94-.08-.42-.39-.93.41-.99.5.58.36,1.3.35,1.96-.04,5.64-.09,11.28-.15,16.92,0,.41.16.88-.25,1.21-.03.03-.15,0-.17-.03-.06-.08-.1-.19-.15-.28.25-3.85.2-7.7.03-11.55Z" fill="#dacec5" stroke-width="0"/>
  <path d="M78.46,112.51c.09.11.09.22,0,.33.14.16.15.33.02.5-.14.12-.3.2-.48.26-.66.29-1.7-.28-2.01.81-.16.56,0,1.09.55,1.42.37.22.81.25,1.22.35.28.07.53.18.73.39.08.2.05.37-.08.54-.39.31-.86.34-1.33.38-.74.01-1.17.33-1.13,1.13.03.63.28,1.06.92,1.23.36.1.73.15,1.04.39.39.61-.12.75-.5.86-.7.2-1.43.21-2.16.16-.22-.08-.38-.22-.49-.44-.22-3.76-.61-7.52.22-11.26.55-.34.72.11.94.45-.31,1.99,1.41,1.94,2.53,2.49Z" fill="#875533" stroke-width="0"/>
  <path d="M82.9,125.65c-.5.46-.09,1.89-1.49,1.41.02-.76.42-1.45.43-2.21.09-.38.19-.75.07-1.14-.05-.15-.08-.31-.1-.47.05-.94-.45-1.75-.56-2.66.5-1.07.42-2.24.57-3.37.1-.46.05-.91-.04-1.36-.08-.8-.2-1.61.47-2.26.42.22.41.96,1.08.88.07.21.11.42.12.63.09,2.76-.13,5.52-.05,8.29.02.74.17,1.62-.51,2.25Z" fill="#b3947e" stroke-width="0"/>
  <path d="M83.3,114.77c.02-.1.03-.2.03-.3.23.07.45.14.68.21.43.17.36.76.9.99.21-.82.32-1.62.32-2.44.31-1.11.72-.48,1.11-.06-.42.19-.4.53-.32.9.36,3.33.04,6.66.04,9.99,0,0-.18.05-.18.05-.13-.01-.26-.03-.39-.04-.95-1.72-.11-3.66-.67-5.68-.46,1.01-.07,2.04-.73,2.75-.2.09-.39.06-.56-.08-.55-1.44,0-2.96-.36-4.41-.05-.63-.19-1.27.1-1.88Z" fill="#895b37" stroke-width="0"/>
  <path d="M44.33,106.51c.02-.88.05-1.77.07-2.65,1.04-.36,1.96.04,2.9.41.29,1.01.68,2.19-.36,2.84-.83.53-1.95.49-2.61-.6Z" fill="#efe9e5" stroke-width="0"/>
  <path d="M57.88,105.38c1.2-.65,1.52.56,2.19,1.04.34.44.16.95.19,1.43.06.86.02,1.64-1.16,1.65-1.21,0-2.1-.76-2-1.89.07-.79.19-1.6.78-2.22Z" fill="#f1ece7" stroke-width="0"/>
  <path d="M57.14,95.3h4.23c-.33,2.76-.59,2.89-2.65,1.36-.52-.39-1.22-.59-1.58-1.36Z" fill="#f4f3f3" stroke-width="0"/>
  <path d="M78.43,113.24c.01-.13.02-.27.03-.4.22.28.45.57.67.85.57,1.17.38,2.41.33,3.64-.26,2.36-.04,4.73-.13,7.09-.03.79.14,1.64-.58,2.26-.56-.16-.22-.67-.39-.99-.09-.23-.06.09-.11-.15-.51-2.86-.51-5.71.13-8.56.03-.11.03-.22,0-.33-.65-1.14-.68-2.28.03-3.41Z" fill="#fcfcfb" stroke-width="0"/>
  <path d="M46.13,90.72c-2.2-1.9-2.03-3.47.55-4.99-.19,1.71-.36,3.27-.55,4.99Z" fill="#f3f2f1" stroke-width="0"/>
  <path d="M78.46,112.51c-.55-.01-1.11,0-1.66-.05-1.67-.14-1.79-.97-.96-2.2.87-.68,1.71-.68,2.54.07.2.72-.55,1.48.07,2.19Z" fill="#f8f6f4" stroke-width="0"/>
  <path d="M44.34,102.17c.91-.27,1.14-1.05,1.44-1.82.55-1.45,1.26-2.8,2.72-3.57-.7,1.83-1.83,3.44-2.27,5.42-.28,1.26-1.24.16-1.89-.04Z" fill="#e3e2ea" stroke-width="0"/>
  <path d="M56.3,107.12c-.04-.59.01-1.14.72-1.33.88,1.11-.15,2.47.46,3.62-.36,1.6-.21,3.23-.25,4.85-.02.8.14,1.64-.47,2.32-.61.3-.75-.23-1.01-.56-.09-.2-.15-.42-.19-.64-.05-.45,0-.89.09-1.33.43-1.94.18-3.93.36-5.89.03-.38.05-.73.29-1.04Z" fill="#f5f1ed" stroke-width="0"/>
  <path d="M38.72,68.99c.4.05.79.1,1.19.15q2.04,1.36-.82,3.52c0-1.31.08-2.53-.37-3.66Z" fill="#efeaea" stroke-width="0"/>
  <path d="M56.3,107.12c-.04,2.4.33,4.81-.31,7.18-.87-.6-1-1.34-.41-2.21,0-.24,0-.47,0-.71-.57-.74-.62-1.49-.03-2.24.35-.36.64-.67-.2-.77-.56-.06-1.23.3-1.65-.38.64-.48,1.44-.76,1.85-1.52.62-.22.43.5.74.64Z" fill="#b99c86" stroke-width="0"/>
  <path d="M57.13,109.48c-.04-1.23-.07-2.46-.11-3.69.19-.34.51-.42.86-.42-.07.55-.07,1.13-.22,1.66-.33,1.15-.21,1.83,1.24,1.97,1.67.16.99-.95,1.08-1.67.04-.31.06-.62.08-.92.31.07.65.09.79.46-.71.9-.27,1.99-.48,2.97-.12.14-.27.23-.44.29-.81.02-1.6-.18-2.39-.32-.16-.08-.3-.19-.42-.33Z" fill="#84522f" stroke-width="0"/>
  <path d="M52.19,106.47c.01.91-.1,1.41-1.34,1.29-1.71-.16-1.85-1.02-1.57-2.34.97.35,1.94.7,2.91,1.05Z" fill="#eae5e2" stroke-width="0"/>
  <path d="M78.39,110.32c-.85-.02-1.7-.04-2.54-.07-.31-.15-.38-.43-.39-.74-.75-.88-.49-1.84-.22-2.8.11-.15.25-.26.43-.32.81.18,1.6.51,2.46.33.18.02.3.12.36.29-.03.25-.06.49-.1.74-.46.5-1.37.11-1.73.87.4.67,1.31.29,1.73.86,0,.28,0,.57,0,.85Z" fill="#865435" stroke-width="0"/>
  <path d="M78.39,109.47c-.89-.16-2.43.72-2.53-.69-.12-1.85,1.64-.72,2.52-1.03,0,.58,0,1.15,0,1.73Z" fill="#f3efec" stroke-width="0"/>
  <path d="M82.26,113.59c-.01.89-.03,1.79-.04,2.68-.5.5-1.12.51-1.74.41-1.17-.19-1.3-.72-.49-1.87,1.38.5,1.34-.99,2.03-1.44.02-.02.11.03.14.07.04.04.06.1.09.15Z" fill="#f1efed" stroke-width="0"/>
  <path d="M85.23,113.24c.53.64.28,1.42.32,2.14.03.44.37,1.2-.56,1.26-.87.05-1.01-.49-.93-1.21.03-.24-.03-.49-.04-.74.41-.48.81-.96,1.22-1.45Z" fill="#f5f3f1" stroke-width="0"/>
  <path d="M79.98,114.8c-.6.92-.55,1.51.74,1.48.5-.01.99-.02,1.49-.02.35.28.4.54-.05.76-.8.58-1.81.5-2.69.84-.53-.15-.48-.53-.36-.93-.55-1.08.21-2.16.02-3.24.28.37.57.75.85,1.12Z" fill="#825030" stroke-width="0"/>
  <path d="M44.33,106.51q2.99.77,2.97-2.25c.28.03.59.02.74.33-.55.98-.15,2.05-.32,3.07-1.21.66-2.3.25-3.36-.39-.36-.24-.44-.49-.03-.75Z" fill="#7c4924" stroke-width="0"/>
  <path d="M55.56,106.48c.41,1.76-.64,1.74-1.85,1.52.05-.48.09-.97.14-1.45.57-.02,1.14-.05,1.71-.07Z" fill="#f7f3ef" stroke-width="0"/>
  <path d="M78.45,101.62c.81.39.06,1.35.67,1.82.27.02.29.27.4.43-.35,1.04-.69,2.08-1.04,3.13-.03-.07-.05-.15-.08-.22-.52-.56-.4-1.23-.32-1.89.1-.45.08-.91-.02-1.36-.09-.68-.13-1.35.39-1.91Z" fill="#a78974" stroke-width="0"/>
  <path d="M64.47,102.33c.05-.39.18-.71.65-.69.39.01.55.29.5.6-.1.55.39,1.19-.23,1.67-.31-.52-.61-1.05-.92-1.58Z" fill="#ede9e7" stroke-width="0"/>
  <path d="M75.83,94.03c.7-.36,1.4-.71,2.1-1.07.17,2.07-1.25,1.01-2.1,1.07Z" fill="#abaacb" stroke-width="0"/>
  <path d="M79.52,103.88c-.13-.14-.27-.29-.4-.43.05-.47.03-.96.15-1.4.15-.56.47-.65.82-.1-.19.65-.38,1.29-.57,1.94Z" fill="#cfc9c5" stroke-width="0"/>
  <g>
    <path d="M129.52,17.22c-.3-.38-.63-.73-.29-1.33,2.19-3.77,1.42-7.15-1.02-10.6-2.06-2.91-3.04-3.48-6.25-1.65-4.39,2.5-8.86,4.84-13.34,7.18-3.4,1.78-5.31,4.93-6.51,8.31-1.42,4.02-.16,7.78,2.55,10.97.76.89.9,1.62.59,2.68-.86,2.93-.88,5.91-.21,8.89.19.83.54,1.54,1.43,1.8.81.24,1.23-.4,1.38-.93.19-.7-.28-.74-.9-.55-.92.28-.76-.6-.85-1.03-.59-2.92-.49-5.81.57-8.76,1.7,1.71,3.7,2.66,5.94,3.12.89.18,1.22.6,1.05,1.55-.19,1.04-.31,2.11-.26,3.16.07,1.71,1.75,3.6,3.17,3.74,1.44.14,2.89-1.01,3.51-2.85.48-1.43.8-2.9.8-4.41,0-.94.33-1.4,1.22-1.78,3.06-1.31,5.54-3.41,7.29-6.23,2.3-3.69,3.11-7.49.14-11.3ZM111.37,10.69c3.56-1.68,7-3.56,10.35-5.61.91-.55,1.85-1,2.92-1.19.87-.15,1.42.1,1.85.86.77,1.36,1.64,2.65,2.39,4.02,1.24,2.27.21,4.34-.58,6.45-.8-.03-1.06-.67-1.47-1.07-3.59-3.51-7.93-4.1-12.27-1.64-.26.15-.56.34-.84.34-2.6,0-4.99.91-7.76,1.8,1.57-2.13,3.51-3.05,5.41-3.95ZM116.26,28.87c.67-.17.84-1.11,1.62-1.04.09,0,.26.35.21.45-.43.83-1.19,1.11-2.5,1.4.45-.56.53-.78.67-.81ZM115.28,25.22c-.11-.29.23-.62.54-.63.91-.02.93.82,1.43,1.62-.99-.18-1.68-.28-1.96-.99ZM117.61,24.44c.21-.66.81-.58,1.54-.51-.25.68-.49,1.2-1.12,1.23-.14,0-.48-.53-.42-.72ZM117.84,30.17c.8-.23.89-.09,1.12.55.93,2.51.47,3.02-3.23,3.19.95-1.17,0-3.15,2.1-3.74ZM118.63,21.01c-.92-1.12-2.51-1.46-4.15-2.03,2.64-1.29,5.02-2.01,7.57-.94,1.97.82,2.03,1.74.43,3.03-1.37,1.1-2.45,1.65-3.85-.06ZM114.76,29.6c-1.21.2-2.16-.32-3.37.51-.86.59-2.5-.21-3.64-.93-.4-.25-.37-.57-.24-.97.5-1.52.98-3.05,1.71-4.69.64,3.2,3.61,4.11,5.54,6.07ZM111.44,19.59c.14-1.21.85-1.98,1.43-3.02.81,1.7.01,2.44-1.43,3.02ZM113.77,22.95c-.31-.46-.6-.93-1-1.56,1.12.11,1.98.31,2.16,1.37.15.87-.61,1-1.16.19ZM121.22,16.43c-2.59-.18-4.72.24-6.71,1.2-.39-.72-.21-1.34-.21-1.95,0-1.27.57-1.76,1.87-1.56,1.78.28,3.42.78,5.05,2.31ZM117.44,13.14c3.9-1.34,5.12-.55,6.09,3.96-1.78-2.01-3.56-3.34-6.09-3.96ZM124.14,22.12c-.54,1.73-1.65,2.86-3.11,3.8-.45-2.27-.23-2.53,3.11-3.8ZM123.56,13.18c1.67.76,2.51,1.97,3.54,2.94.45.42.2.73-.13,1.07-.52.52-.87,1.21-1.82,1.63-.29-1.95-.79-3.66-1.59-5.64ZM105.05,28.54c-.9-.69-1.25-1.5-1.46-2.39-1.2-2.58-.99-5.15.06-8.21.36,1.31.5,2.25,1.14,2.91.58.59.73,1.02.02,1.66-.69.61-.7,1.56-.8,2.43,0,0,0,0,0,0,.33,1.15.67,2.29,1.05,3.6ZM104.97,18.25c-.24-1.35.38-2.09,1.6-2.52,2.05-.72,4.06-1.56,6.41-1.63-1.07,1.89-2.12,3.64-3.08,5.44-.73,1.36-2.18,1.41-3.24,1.33-1.16-.09-1.49-1.48-1.7-2.62ZM106.47,27.52c-.48-1.41-.49-2.77.18-4.05.2-.37.44-.85.99-.57.47.24.2.63.08.97-.42,1.21-.83,2.43-1.25,3.64ZM113.08,34.17c-1.56-.2-4.96-2.29-5.94-3.81,2.08,1.02,4.21,1.1,6.4,1.05.52-.01,1.61-.87,1.66.57.05,1.25-1.05,2.33-2.12,2.19ZM119.81,36.81c-.29,1.27-.52,2.55-.88,3.8-.31,1.06-.96,2.06-2.17,1.95-1.33-.12-2.03-1.24-2.15-2.46-.12-1.15.13-2.34.22-3.52.06-.71.59-.65,1.1-.67.87-.03,1.76.01,2.59-.19,1.05-.25,1.41.01,1.29,1.08ZM120.65,32.29c-1.17-.95-.96-4.32.37-5.06,2.33-1.3,4.01-3.07,4.46-5.89,1.38,3.14-1.01,9.47-4,10.85-.27.12-.51.37-.83.11ZM129.26,26.34c-1.09,2.43-2.89,4.31-5.04,5.87-.81.98-1.96,1.31-3.19,1.54.94-.64,1.87-1.29,2.81-1.93,2.62-3.44,4.25-7.09,2.6-11.52-.49-1.32.93-1.78,1.61-2.38.67-.59.91.53,1.19.96,1.62,2.46,1.14,5,.04,7.47Z" fill="#010101" stroke-width="0"/>
    <path d="M112.87,16.57c-.58,1.03-1.29,1.8-1.43,3.02,1.44-.58,2.24-1.31,1.43-3.02Z" fill="#bfbfbf" stroke-width="0"/>
    <path d="M123.83,31.82c-.94.64-1.87,1.29-2.81,1.93,1.22-.23,2.38-.56,3.19-1.54-.37.11-.45-.06-.38-.39Z" fill="#8c8c8c" stroke-width="0"/>
    <path d="M124.22,32.21l-.38-.39c-.07.32.01.5.38.39Z" fill="#8c8c8c" stroke-width="0"/>
    <path d="M103.59,26.14c.21.89.56,1.7,1.46,2.39-.38-1.31-.71-2.46-1.05-3.6,0,.45.49,1.07-.41,1.21Z" fill="#bbb" stroke-width="0"/>
    <path d="M103.59,26.14c.9-.14.41-.76.41-1.21,0,0,0,0,0,0-.24.37.06.92-.41,1.21Z" fill="#bbb" stroke-width="0"/>
  </g>
  <path d="M76.21,28.47c-.35-1.39-1.54-2.5-1.33-4.06.29-2.16,1.42-4.05,2.16-6.06.26-.7,1.68-.3,2.61-.12.98.18,1.83,1.12,2.94.53.72-.5,1.07.13,1.31.55,1.57,2.74,3.95,4.89,5.44,7.68.1.3.09.62.18.91.45,1.42,1.19,2.88-.34,4.08-1.67,1.3-3.47,1.95-5.48.66-2.42-1.53-4.76-3.21-7.49-4.17Z" fill="#7b461c" stroke-width="0"/>
  <path d="M83.71,32.65c1.55.03,3.07.54,4.59-.55,1.21-.86,1.79-1.66,1.08-3.04-.37-.71-.54-1.37-.03-2.07,6.14,6.78,7.69,18.8,4.21,23.51-.12-1.87-.35-3.55-.72-5.22-1.08-4.85-4.2-8.26-7.79-11.35-.47-.41-1.02-.72-1.33-1.28Z" fill="#6d2f00" stroke-width="0"/>
  <path d="M32.59,28.51c2.3-4.95,5.67-8.98,10.21-12.03.37-.14.49.07.54.38-.31.94-1.04,1.58-1.78,2.08-3.13,2.12-5.03,5.26-7.1,8.26-.39.56-.68,1.19-1.36,1.47-.19.01-.35-.04-.5-.16Z" fill="#a08168" stroke-width="0"/>
  <path d="M43.23,16.92c-.14-.14-.29-.29-.43-.43,1.77-1.22,3.63-2.29,5.67-3.01-.62,1.35-2.18,1.4-3.16,2.27-.3.26-.78.35-.98.77-.29.33-.6.63-1.09.4Z" fill="#8b684c" stroke-width="0"/>
  <path d="M64.64,11.64c-2.66,0-5.32,0-7.97,0,2.66-.58,5.32-.56,7.97,0Z" fill="#6d2f00" stroke-width="0"/>
  <path d="M31.95,31.86c.07,1.45-1.03,2.67-.69,4.27-.62-.4-.31-.89-.45-1.25.06-1.28.2-2.55.78-3.72.3.15.17.51.35.71Z" fill="#7b471e" stroke-width="0"/>
  <path d="M31.95,31.86c-.12-.24-.24-.47-.35-.71-.04-1.02.47-1.83,1-2.64.17,0,.33,0,.5.01.05.49.38.99-.05,1.47-.37.62-.73,1.24-1.1,1.86Z" fill="#967053" stroke-width="0"/>
  <path d="M80,16.85c-.92-.65-1.99-1.12-2.64-2.11,1.17.28,2.04,1.07,2.98,1.74-.05.18-.16.3-.34.37Z" fill="#71533c" stroke-width="0"/>
  <path d="M80,16.85c.11-.12.23-.25.34-.37.94.59,2.11.95,2.25,2.32-.86-.65-1.73-1.3-2.59-1.95Z" fill="#b7a495" stroke-width="0"/>
  <path d="M63.72,21.52c-1.43.12-2.64.4-3.5,1.52-.68.88-1.49,1.48-2.68,1.38-.95-.08-1.55.44-2.22,1.1-1.89,1.83-3.07,1.13-3.91-.59-.79-1.6-1.59-3.2-3.15-4.4-2-1.55-1.72-3.3.61-4.31,2.64-1.16,5.38-2.51,8.17-2.8,2.08-.21,4.38-.21,6.68.42,2.45.67,4.95,1.28,7.43,1.9,1.28.32,2.61,1,3.13,1.78.53.8-.09,2.44-.87,3.48-.8,1.06-2.1,1.72-2.2,3.33-.04.67-2.69.93-3.35.44-.95-.7-2.14-.45-3.2-.67-2.32-.48-2.4-.5-.92-2.59Z" fill="#6d2f00" stroke-width="0"/>
  <path d="M33.04,30c.02-.49-.28-.99.05-1.47,1.74-2.54,3.2-5.3,5.43-7.47,1.5-1.46,3.13-2.77,4.71-4.14.37-.13.73-.27,1.09-.4-.54,1.67,0,3.14.79,4.59.4.74.96,1.46.46,2.43-.26.52.16.88.58,1.22,1.2,1,2.1,2.27,2.93,3.57.75,1.16.36,2.32-.51,3.2-.8.8-1.68.86-2.85.22-1.84-1-3.13-2.82-5.26-3.35-.24-.06-.42-.42-.58-.67-1.29-2.16-3.46-2.21-4.94-.13-.59.83-1.27,1.6-1.91,2.4Z" fill="#7b471e" stroke-width="0"/>
  <path d="M76.57,53.27c2.68-.47,4.7.76,5.89,2.94,1.17,2.15.91,4.45-.72,6.44-.98.49-1.93,1.27-3.03.26-.04-.12-.11-.26-.07-.36,1.63-3.5.21-6.25-2.15-8.77-.07-.19-.04-.36.08-.51Z" fill="#fceef3" stroke-width="0"/>
  <path d="M76.57,53.27c0,.13,0,.25,0,.38-.15.29-.41.46-.7.6-2.62,1.26-3.64,3.48-2.9,6.24.58,2.14,1.96,3.26,4.19,3.32.46.18.73.47.53,1-.21.56-.6.75-1.17.55-2.58-.03-4.51-1.27-5.81-3.41-1.08-1.78-1.45-3.77-.32-5.66,1.37-2.28,3.57-3.13,6.17-3.01Z" fill="#faedf2" stroke-width="0"/>
  <path d="M76.53,65.35c.53-.29,1.35-.47.42-1.25.26-.93.79-1.5,1.84-1.37,1,.76,1.96-.35,2.95-.08-1.26,1.83-2.76,3.17-5.21,2.7Z" fill="#f2a5c2" stroke-width="0"/>
  <path d="M48.5,63.71c.96.2,1.68-.15,2.22-.95,1.31-1.92,1.78-4.03,1.36-6.29-.21-1.13-1.16-1.68-2.17-2.07,1.97-.5,3.14.75,4.14,2.06,1.08,1.42,1.4,3.11.43,4.73-1.26,2.1-3.06,3.4-5.65,3.25-.29-.15-.81-.04-.77-.58.01-.18.24-.22.43-.14Z" fill="#faedf2" stroke-width="0"/>
  <path d="M49.17,54.38c-3.26,1.29-4.21,4.45-2.37,7.88-1.07.65-2.03.17-2.98-.31-1.06-1.49-.93-4.36.28-5.91,1.37-1.76,3.27-2.38,5.08-1.66Z" fill="#faecf2" stroke-width="0"/>
  <path d="M43.82,61.95c1.03-.28,1.99.21,2.98.31.57.48,1.13.97,1.7,1.45-.45.5.38.41.34.72-2.25.34-3.92-.49-5.02-2.48Z" fill="#f2a4c1" stroke-width="0"/>
  <path d="M68.33,123.75c-1.77-.39-1.86-.45-1.85-1.96.02-4.47.08-8.95.08-13.42,0-3.21.42-3.64,3.63-3.4.34.8.22,1.62.06,2.44-.15,4.32-.3,8.64-.44,12.96-.32.52-.23,1.12-.15,1.64.18,1.11-.36,1.56-1.33,1.74Z" fill="#fdfcfc" stroke-width="0"/>
  <path d="M74.4,127.07c-.32.02-.64.03-.82-.31-.13-.13-.27-.26-.31-.43-.4-1.81-1.18-1.19-2-.32-.12,0-.23,0-.35-.02-.34-.37-.23-.79-.2-1.23.33-4.28.12-8.57.42-12.85,0-.21.07-.4.21-.55.45-.16.68.21.98.39.84.4,1.54.54,1.44-.79-.08-.32-.33-.58-.33-.92.33-.79.29-1.7.87-2.4.12-.13.23-.26.35-.39.45.37.46.9.38,1.37-.36,2.13.04,4.3-.29,6.44-.78-.02-.78-.61-.99-1.01-.42-.54-.93-.98-1.4-.13-.36.64-.04,1.17.69,1.38.29.09.6.06.91.07.97-.02,1.03.54.82,1.27-.19.22-.44.31-.72.35-.65.11-1.56-.47-1.82.65-.14.59-.23,1.27.33,1.71.78.6,1.04-.71,1.74-.54.17.13.28.3.33.51,0,2.59.7,5.21-.25,7.77Z" fill="#824f2c" stroke-width="0"/>
  <path d="M74.59,116.54c.17-.6.06-.96-.67-.8-.61-.86-.63-1.7.05-2.53.74.23.2.99.7,1.57,0-2.64,0-5.09,0-7.54,0-.49.16-1.02-.29-1.42-.37-.35-.38-.72-.08-1.12.88-.39.58-1.24.76-1.92.11-.42-.12-1.22.82-.81.71,1.52.75,3.03-.04,4.54-.71.93-.12,2.02-.38,3-.62,3.84-.16,7.72-.34,11.57.84,1.97.1,3.84-.35,5.73-.12.08-.25.17-.37.25-.46-2.71-.08-5.43-.15-8.15-.42-.87-.03-1.62.34-2.38Z" fill="#d7c7bb" stroke-width="0"/>
  <path d="M55.96,115.47c.03.14.06.28.08.43.67,1.68.26,3.37.08,5.07-.17,1.64.1,3.31-.11,4.96-.49.2-.82-.19-1.22-.33-.57-.53-1.15-.83-1.76-.05-.63-.05-.39-.74-.74-1-1.22-1.83-.51-3.85-.47-5.78.01-.71.16-1.48.42-2.18.08-.19.22-.33.41-.42.97.29.65,1.15.78,1.81.12.6-.24,1.63.68,1.61.88-.02.52-1.06.66-1.66.11-.47.08-.97.1-1.46.02-.19.06-.37.13-.54.23-.34.5-.58.94-.43Z" fill="#9d7557" stroke-width="0"/>
  <path d="M52.63,116.24c-.26,2.76-.5,5.52-.33,8.29-.03.55-.17.96-.86.72-.7-2.93-.72-5.88-.16-8.83.01-.33.02-.67.04-1,.63-2.2-.01-4.63,1.2-6.72.87.15.44.85.52,1.31.17,1.05-.33,2.15.24,3.18.67.64.59,1.38.27,2.14-1.2.27-.62-.53-.71-.93-.34.52.28,1.28-.21,1.86Z" fill="#e3d7ce" stroke-width="0"/>
  <path d="M70.25,107.41c-.02-.81-.04-1.62-.06-2.44-.82-2.27-2.26-.6-3.63-.59-.02-.44,0-.96-.07-1.47-.15-1.1.34-1.44,1.37-1.31.61.07,1.24.03,1.86.03.56,0,.99.09.9.81-.2,1.65.07,3.34-.37,4.97Z" fill="#f5f2ef" stroke-width="0"/>
  <path d="M83.94,121.05c0-.93,0-1.86,0-2.79,0-.57.13-.94.83-.91.67.03.83.4.82.97-.03,1.92-.06,3.84-.08,5.76-.46-.01-.93-.03-1.39-.04-.81-.95-.67-1.96-.17-2.99Z" fill="#ece4de" stroke-width="0"/>
  <path d="M68.33,123.75c1.89-.52.59-2.43,1.48-3.38-.03,1.67-.17,3.36-.06,5.02.11,1.61-.85,1.39-1.87,1.45-1.12.07-1.64-.27-1.45-1.45.05-.3,0-.61,0-.96.81-.03,1.38.75,2.16.4.37-.17.71-.43.64-.81-.09-.53-.57-.27-.91-.27Z" fill="#faf8f6" stroke-width="0"/>
  <path d="M71.71,111.37c-.3.19-.37.48-.36.8.07,4.61-.08,9.21-.42,13.8-.05.17-.09.49-.17.5-.78.08-.5-.57-.44-.84.47-2.09.23-4.21.32-6.31.38-1.89-.11-3.82.28-5.71.15-1.53-.12-3.09.33-4.6.5.26.61.76.75,1.24.07.41.05.8-.28,1.11Z" fill="#c1a793" stroke-width="0"/>
  <path d="M79.12,116.93c.13.26.26.52.38.78.87.8.49,1.91.74,2.86-.36,1.64.08,2.8,1.9,3.11.04.06.08.12.12.19-.34.83-1.02.66-1.67.57-.01,0-.34-.33-.17.1-.2.85-.31,1.72-.78,2.48-.29-.12-.59-.23-.88-.35.19-3.24-.17-6.51.35-9.74Z" fill="#b09078" stroke-width="0"/>
  <path d="M51.73,116.2c-.35,3.01-.41,6.03-.29,9.05-.23-.12-.46-.23-.7-.35-.09-.1-.12-.2-.09-.3.03-.1.06-.15.09-.15.38-.34.3-.61-.13-.82-.53-.78-.3-1.99-1.4-2.45-.82-1.59-.29-3.29-.38-4.94.17-.11.33-.1.48.03.7.94.04,2.18.74,3.29.91-1.01.2-2.37.9-3.31.25-.2.5-.22.77-.05Z" fill="#ab896e" stroke-width="0"/>
  <path d="M44.69,122.29c-.02-.23-.04-.45-.06-.68-.35-.39-.33-.83-.19-1.29,1.09-1.35,2.21-.51,3.32-.03.26.86.12,1.73.09,2.6-1.22.68-2.25.34-3.16-.61Z" fill="#efe9e4" stroke-width="0"/>
  <path d="M44.67,120.3c-.01.44-.03.87-.04,1.31-.51.81-.84.64-.9-.21-.09-1.3-.08-2.6-.14-3.89-.08-1.79-.2-3.57-.3-5.36.85.09.68.74.68,1.27.01,1.3,0,2.61,0,3.96.57-.31.23-.82.41-1.18,1.25.58.72,1.65.73,2.58-.01.55-.56.94-.45,1.52Z" fill="#c6af9d" stroke-width="0"/>
  <path d="M78.4,116.97c0,2.9-.02,5.81-.03,8.71-.49.31-.03,1.15-.74,1.34-.48-.55-.38-1.2-.3-1.84.09-.42.13-.83.03-1.26-.14-1.1.06-2.43-1.64-2.52-.16-.08-.28-.2-.35-.37.73-.53,1.58-.15,2.36-.33.03,0,.09-.1.07-.13-.04-.1-.11-.19-.17-.29-.07-1.12-.01-2.26-.74-3.22l1.51-.09Z" fill="#b19078" stroke-width="0"/>
  <path d="M79.64,127.02c.03-.88-.54-1.94.73-2.46.59-.4,1.18-.4,1.77,0-.04.89.55,1.96-.73,2.49l-1.77-.03Z" fill="#f7f4f1" stroke-width="0"/>
  <path d="M56.02,125.93c-.9-1.3-.35-2.75-.34-4.12,0-1.97.23-3.94.36-5.91.11.27.22.54.33.81.85,1.3.36,2.76.46,4.14.07,1.04.01,2.1.02,3.14-.04.7.04,1.44-.65,1.93h-.1s-.1,0-.1,0Z" fill="#faf9f8" stroke-width="0"/>
  <path d="M77.72,124.84c-.03.73-.06,1.45-.09,2.18-.75,0-1.53.28-2.23-.24-.39-.63-.39-1.29-.14-1.96.83-.78,1.65-1.27,2.46.03Z" fill="#f3efeb" stroke-width="0"/>
  <path d="M71.27,126c-.04-1.05.33-1.61,1.5-1.42,1.58.26.65,1.41.81,2.17-.84-.05-2.11,1.26-2.31-.75Z" fill="#f6f3f0" stroke-width="0"/>
  <path d="M56.22,125.92l.13-1.8c.54-.69-.29-1.71.55-2.33.72.82,1.27,2.07,2.72,1.08.18-.04.34,0,.48.11l-.05,1.89h-.15s-.15,0-.15,0c-.97.13-2.05,0-2.62,1.09-.3-.01-.61-.03-.91-.04Z" fill="#8c5c3a" stroke-width="0"/>
  <path d="M74.59,102.83c.15,1.06-.56,1.01-1.29,1.06-.86.06-.86-.43-.85-1.05,0-.86.37-1.19,1.25-1.21.98-.02.97.52.89,1.19Z" fill="#ebe2dc" stroke-width="0"/>
  <path d="M74.32,107.63c-.02.94.34,1.99-.76,2.61-.62.47-1.19.32-1.52-.29-.46-.83-.16-1.63.38-2.34.64,0,1.27.02,1.91.03Z" fill="#fcfcfb" stroke-width="0"/>
  <path d="M83.3,114.77c.02.59.04,1.18.06,1.77.32,1.51.02,3.05.17,4.57.27,1.88.16,3.75-.23,5.61-.68-.16-.24-.72-.4-1.08,0-2.92-.02-5.84.03-8.76.01-.71-.2-1.49.37-2.12Z" fill="#fefdfd" stroke-width="0"/>
  <path d="M71.66,110.23c-.45-.3-.24-.81-.42-1.2.11-2.4-.07-4.84.58-7.19.41,1.83.27,3.63,0,5.42.36,1.01.27,2-.16,2.97Z" fill="#ddcfc4" stroke-width="0"/>
  <path d="M47.71,124.85c-.85-.13-1.7-.27-2.55-.38-.57-.08-1.15-.15-1.19-.88-.07-1.34.76.93.76-.18,0-.12,0-.25,0-.37,2.18-.33,3.07.22,2.97,1.82Z" fill="#ede6e0" stroke-width="0"/>
  <path d="M75.83,106.51c.01-1.51.03-3.02.04-4.54.25-.11.5-.21.75-.32.41.87.73,1.81,1.77,2.18.53.24.47.51.04.8-1.13.27-1.64,1.41-2.63,1.86l.03.02Z" fill="#885733" stroke-width="0"/>
  <path d="M57.13,125.96c.01-1.74.29-1.86,2.62-1.09-.04,2.38-1.61,1.06-2.62,1.09Z" fill="#f1ece8" stroke-width="0"/>
  <path d="M65.03,114.79c.4,3.85.46,7.7-.03,11.55-.04-.36-.07-.72-.11-1.09.05-3.49.09-6.98.14-10.47Z" fill="#f8f6f4" stroke-width="0"/>
  <path d="M78.4,103.83c-2.03.44-2.11-.69-1.77-2.18.61-.01,1.21-.02,1.82-.03-.02.74-.04,1.47-.05,2.21Z" fill="#fbfaf9" stroke-width="0"/>
  <path d="M74.3,104.7c.03.37.05.74.08,1.12.19,1.02-.4,1.04-1.18,1.02-.85-.03-.78-.54-.79-1.11,0-.68.09-1.24.99-1.12.3.04.6.06.9.1Z" fill="#f8f6f4" stroke-width="0"/>
  <path d="M49.22,121.19c2.42-.3,1.26,1.44,1.4,2.45-.64.18-1.13.02-1.42-.62,0-.61.01-1.22.02-1.83Z" fill="#f9f7f5" stroke-width="0"/>
  <path d="M71.66,110.23c.05-.99.11-1.98.16-2.97.2.12.4.23.6.35.32.91-1.43,2.71,1.15,2.63.26.12.51.23.77.35-.12.13-.25.25-.39.36-.73.28-1.41.77-2.26.41,0,0,.02.02.02.02-.02-.38-.03-.76-.05-1.15Z" fill="#773e1b" stroke-width="0"/>
  <path d="M83.3,126.72c0-1.87.01-3.74.02-5.6.12-.18.25-.18.37,0,.07-.06.16-.08.25-.06.06,1,.12,1.99.17,2.99-.45.27-.47.55-.03.85.21.29.17.55-.1.78-.34.28-.13.92-.69,1.06Z" fill="#b3947b" stroke-width="0"/>
  <path d="M47.71,124.85c-.23-1.86-1.72-1.63-2.97-1.82-.01-.25-.03-.5-.04-.75.97.21,1.94.42,2.91.62.19-.16.33-.13.44.09.45.52-.63,1.69.77,1.8-.35.58-.72.53-1.11.04Z" fill="#834f2a" stroke-width="0"/>
  <path d="M75.45,124.87c-.02.64-.04,1.27-.06,1.91-.21.01-.42.02-.63.03-.16-1.93.24-3.82.35-5.73.09.02.17,0,.25-.05,0,0,.13.13.13.13.59.75.44,1.61.36,2.46-.04.44-.38.8-.4,1.25Z" fill="#b19078" stroke-width="0"/>
  <path d="M83.99,125.67l.1-.78c.58,0,1.45-.64,1.47.62,0,.45.2,1.04-.53,1.19-.85.17-1.11-.27-1.04-1.03Z" fill="#f5f1ee" stroke-width="0"/>
  <path d="M43.25,104.66c.66,2.21.66,4.42.06,6.64-.09-2.21-.42-4.42-.06-6.64Z" fill="#f4efeb" stroke-width="0"/>
  <path d="M53.04,125.54c-.27-.85.2-1.02.92-1.08.97-.09.91.5.84,1.14-.6.57-1.17-.21-1.76-.05Z" fill="#f5f2ef" stroke-width="0"/>
  <path d="M70.91,113.62c.02,1.91.18,3.82-.28,5.7.04-1.9-.41-3.83.28-5.7Z" fill="#824f2c" stroke-width="0"/>
  <path d="M50.75,124.45c0,.15,0,.3,0,.45-.42.5-.85.35-1.26,0-.19-.16-.28-.47-.04-.63.46-.31.92-.23,1.3.17Z" fill="#d9cabf" stroke-width="0"/>
  <path d="M64.15,126.36c.03.12.02.23-.01.34-.7,0-1.4,0-2.1,0,0-.61,0-1.21,0-1.82.78.38,1.31,1.14,2.12,1.48Z" fill="#eee7e2" stroke-width="0"/>
  <path d="M64.21,116.23c.42.4.24.93.24,1.39-.04,2.93.35,2.7-2.48,2.36-.39-.77-.18-1.58-.18-2.38-.01-1.89.49-2.16,2.42-1.38Z" fill="#f9f7f5" stroke-width="0"/>
  <path d="M61.91,112.49q2.53-.54,2.6,2.86c-2.04,1.03-2.74.67-2.73-1.41,0-.49-.09-.98.13-1.45Z" fill="#f7f3f1" stroke-width="0"/>
  <path d="M64.31,122.05c.19,1.04-.2,1.35-1.19,1.36-1.02.01-1.24-.37-1.25-1.29-.01-.94.24-1.32,1.24-1.32,1.01,0,1.39.35,1.19,1.25Z" fill="#fbf9f8" stroke-width="0"/>
  <path d="M63.36,109.58c.72-.06,1.27-.03,1.24,1.03-.04,1.24-.85.94-1.55,1-.9.07-1.19-.33-1.15-1.21.05-1.12.77-.87,1.46-.82Z" fill="#f2eeea" stroke-width="0"/>
  <path d="M61.91,112.49c0,.25,0,.49.01.74q0,2.47,2.59,2.12c-.1.3-.2.59-.3.89-2.57.09-2.32-.52-2.24,3.75-.13,0-.26,0-.39,0-.1-2.5-.19-5.01.05-7.51.09,0,.18,0,.27,0Z" fill="#976c4e" stroke-width="0"/>
  <path d="M64.15,126.36c-1.25.29-1.83-.39-2.12-1.48.2-1.34,1.39-.9,1.86-.67.89.43.29,1.4.25,2.15Z" fill="#fcfbfa" stroke-width="0"/>
  <path d="M60.1,122.98c-.11.02-.22.03-.33.03-.56-.41-.49-1-.44-1.57.07-.44.13-.87,0-1.31-.13-.67-.08-1.35-.15-2.02-.05-.46-.21-.86-.76-.88-.67-.02-.77.46-.84.99-.15,1.03.37,1.62,1.26,1.98.37,1.42-1.14.6-1.45,1.22-.09.19-.18.39-.39.49-.59.63.09,1.65-.66,2.23,0-2.47.02-4.94.03-7.41.48-1.67.2-3.4.35-5.09.07-.73,0-1.47.4-2.14.11-.02.23,0,.34.02.08.09.15.19.22.29.36.52.03,1.54.98,1.59.87.04.84-.96,1.29-1.42.14-.04.28-.08.41-.12.02,4.38.2,8.77-.28,13.14Z" fill="#a68166" stroke-width="0"/>
  <path d="M44.36,107.26c1.12.13,2.24.26,3.36.39,0,1.09-.01,2.18-.02,3.27-.84.96-1.92.6-2.94.53-.89-1.32-.24-2.8-.41-4.19Z" fill="#fcfbfa" stroke-width="0"/>
  <path d="M49.22,108.46c.86-.02,1.72-.04,2.58-.07.66,1.26.5,2.44-.34,3.55-.81.3-1.61.52-2.24-.35v-3.13Z" fill="#f9f7f6" stroke-width="0"/>
  <path d="M49.22,111.6c.75.05,1.51.11,2.26.16.15,0,.34-.07.35.18.01.26-.2.35-.38.47-2.25-.07-1.47,1.96-2.1,3.02-.15.14-.31.17-.49.07,0-1.31-.57-2.68.36-3.91Z" fill="#aa866c" stroke-width="0"/>
  <path d="M48.86,115.51c.13-.01.25-.02.38-.03.62-.51,1.31-.51,2.04-.31.19.09.35.21.48.37-.01.22-.02.44-.03.66-.22.02-.45.04-.67.06-.56.44-1.14.52-1.74.09-.16-.03-.32-.07-.48-.1,0-.25.01-.49.02-.74Z" fill="#8a5a3b" stroke-width="0"/>
  <path d="M44.77,111.45c.98-.18,1.96-.35,2.94-.53.44.27.44.57.06.9-.91-.04-1.82-.4-2.71.1-.12.28-.23.27-.33-.01.03-.1.07-.19.09-.29,0-.05-.04-.11-.06-.17Z" fill="#763e15" stroke-width="0"/>
  <path d="M48.05,123c-.15-.03-.29-.06-.44-.09.03-.81.06-1.62.09-2.43-.16-.24-.31-.48-.33-.78,0-.3.08-.57.31-.78.11-.25.22-.5.33-.75.02,1.61.03,3.22.05,4.83Z" fill="#9f7759" stroke-width="0"/>
  <path d="M47.67,118.92c0,.2.02.4.02.6-1.06.69-2.07.54-3.03-.2,0-1.04.25-2.11-.27-3.11,2.39-.75,2.82-.48,3.04,1.85.03.3.16.58.24.87Z" fill="#f6f3f1" stroke-width="0"/>
  <path d="M44.73,111.91c.11-.08.22-.07.33.01.68.45,2.05-.58,2.19.94.06.7.43,1.67-.23,2.08-.54.33-1.49.29-2.14.07-.91-.3-.41-1.26-.52-1.94-.07-.42-.03-.87.37-1.17Z" fill="#faf9f8" stroke-width="0"/>
  <path d="M53.36,115.37c-.03-.73-.05-1.47-.08-2.2,0-2,1.47-.86,2.3-1.08-.22.8.26,1.47.41,2.21,0,.39-.02.78-.03,1.17-.25.12-.5.24-.75.35-.73.31-1.37.25-1.85-.45Z" fill="#fefefd" stroke-width="0"/>
  <path d="M51.77,115.54c-.12-.03-.24-.06-.35-.09-.7-1.11-.69-2.22.03-3.32.06-.08.12-.16.16-.25,0-.02-.08-.08-.12-.12.46-1.09.46-2.22.33-3.36.24.1.48.19.73.29-.23,2.29-.23,4.6-.77,6.85Z" fill="#b59780" stroke-width="0"/>
  <path d="M55.56,109.15c0,.75.02,1.49.03,2.24-.12-.02-.25-.04-.37-.06-1.34-.11-2.23-.53-1.47-2.11.61-.03,1.21-.05,1.82-.08Z" fill="#faf8f7" stroke-width="0"/>
  <path d="M53.74,109.23c-.36,1.3.43,1.79,1.47,2.11-.61-.26-1.27.93-1.74.05-.36-.66-.46-1.52.27-2.16Z" fill="#e3d7ce" stroke-width="0"/>
  <path d="M86.07,124.07c-.25-3.33-.22-6.66-.04-9.99.93,3.33.23,6.66.04,9.99Z" fill="#e0d3c9" stroke-width="0"/>
  <path d="M77.61,116.51c-1.01-.06-2,.08-2.14-1.49-.21-2.36,1.36-1.72,2.59-1.76.15,1.12.77,2.31-.45,3.25Z" fill="#f9f7f6" stroke-width="0"/>
  <path d="M76.89,117.06c1.9.69,1.02,2.03.74,3.22-1.6.21-2.4-.23-2.25-2.1.1-1.23.61-1.28,1.5-1.12Z" fill="#f7f4f2" stroke-width="0"/>
  <path d="M77.61,116.51c.76-1,.31-2.17.45-3.25.13,0,.25-.02.38-.03.2,1.14.08,2.27-.03,3.41-.26-.04-.53-.09-.79-.13Z" fill="#b19078" stroke-width="0"/>
  <path d="M79.81,120.79c-.55-.98,0-2.07-.31-3.08.61-1.32,1.76-.52,2.66-.69-.18,1.26.66,2.74-.81,3.72-.5.49-1.02.33-1.54.05Z" fill="#fefdfd" stroke-width="0"/>
  <path d="M79.81,120.79c.51-.02,1.03-.03,1.54-.05,1.2.73.76,1.9.79,2.94-2.92.21-2.95.17-2.33-2.89Z" fill="#fcfcfb" stroke-width="0"/>
  <path d="M82.14,124.57c-.59,0-1.18,0-1.77,0-.29-.06-.58-.12-1.06-.22,1.07-.5,2.11.12,2.95-.48.4.31.27.52-.12.7Z" fill="#723712" stroke-width="0"/>
  <path d="M83.69,121.12c-.12,0-.25,0-.37,0,.01-1.53.03-3.05.04-4.58.57,1.49.21,3.05.33,4.58Z" fill="#ece4de" stroke-width="0"/>
  <path d="M59.97,109.97c.2,1.16-.21,2.13-1.41,2.08-1.84-.07-.92-1.6-1.08-2.55.87-.06,1.71.09,2.5.47Z" fill="#f8f6f4" stroke-width="0"/>
  <path d="M75.81,106.49c.3-1.44.99-2.32,2.63-1.86-.01.72-.03,1.43-.04,2.15-.95.62-1.85.89-2.6-.29Z" fill="#f9f7f5" stroke-width="0"/>
  <path d="M78.8,62.72c-.61.46-1.23.91-1.84,1.37-1.54.38-2.6-.33-3.51-1.48-1.52-1.92-1.55-5.32-.19-7.33.83-1.22,2.09-1.34,3.31-1.64,3.15,1.9,4.18,6.08,2.22,9.08Z" fill="#020202" stroke-width="0"/>
  <path d="M75.65,57.74c-.58,1.36.02,2.14.61,3.08q.48-1.59-.61-3.08Z" fill="#feedf3" stroke-width="0"/>
  <path d="M49.41,58.43c.42,1.08-.09,1.67-.6,2.39q-.33-1.26.6-2.39Z" fill="#feedf3" stroke-width="0"/>
  <path d="M74.02,118.9c.03.9-.26,1.35-1.3,1.25-.92-.09-.87-.64-.9-1.28-.16-2.69-.17-2.69,2.16-2.27.57.75.22,1.53.05,2.3Z" fill="#f5f2ef" stroke-width="0"/>
  <path d="M73.97,113.2c-.02.84-.04,1.69-.05,2.53-.85-.1-2.03.55-2.19-1.04-.19-1.95.87-1.94,2.25-1.49Z" fill="#f0ebe6" stroke-width="0"/>
  <path d="M73.64,122.7c.25,1.43-1.09,1.23-1.67,1.28-.67.06-.51-.8-.4-1.35.09-.49.16-.98.23-1.47q1.96-.38,1.84,1.54Z" fill="#f9f7f6" stroke-width="0"/>
  <path d="M73.64,122.7c.06-1.32-.53-1.85-1.84-1.54.62-.62,1.42-.58,1.96-.13.47.4.33,1.13-.13,1.66Z" fill="#d7c7bb" stroke-width="0"/>
  <path d="M72.06,112.13c.94-.07,2.21.3,1.86-1.44.14-.04.27-.07.41-.11.1,2.09-.07,2.2-2.27,1.54Z" fill="#d7c6b8" stroke-width="0"/>
  <path d="M74.02,118.9c-.02-.77-.03-1.53-.05-2.3.21-.02.41-.04.62-.07.16.83-.05,1.61-.34,2.38,0,0-.12-.02-.12-.02h-.12Z" fill="#ae8d73" stroke-width="0"/>
  <path d="M55.18,116.32c.5,1.15.02,2.3-.01,3.45-.03.97-.95.5-1.47.59-.69.12-.82-.37-.8-.92.04-1.05.09-2.1.14-3.15.72-.62,1.43-.52,2.14.04Z" fill="#fdfcfc" stroke-width="0"/>
  <path d="M53.65,121.15c1.14-.18,1.59.13,1.51,1.16-.07.85-.23,1.34-1.27,1.37-1.7.06-.96-1.34-1.17-2-.28-.89.74-.39.94-.54Z" fill="#faf8f6" stroke-width="0"/>
  <path d="M55.18,116.32c-.71-.01-1.43-.02-2.14-.04-.14-.02-.28-.03-.41-.05,0-.73,0-1.45,0-2.25.61.34.01,1.19.73,1.38.62.15,1.23.3,1.85.45-.01.17-.02.33-.03.5Z" fill="#956949" stroke-width="0"/>
  <path d="M49.32,116.34c.58-.03,1.16-.06,1.74-.09-.04,1.05-.06,2.1-.12,3.15-.04.64-.36,1.04-1.07,1-.76-.04-.64-.62-.64-1.09,0-.99.05-1.98.08-2.97Z" fill="#fbf9f8" stroke-width="0"/>
  <path d="M44.66,119.31c.98.46,2.01.28,3.03.2,0,.32,0,.64,0,.96-1.01-.07-1.98-.78-3.02-.18-.44-.32-.46-.65-.01-.99Z" fill="#7a431e" stroke-width="0"/>
  <path d="M75.52,123.99c0-.94-.02-1.88-.03-2.83q2.37-.17,2.16,2.89c-.72.35-1.44.49-2.13-.07Z" fill="#fcfbfa" stroke-width="0"/>
  <path d="M75.52,123.99l2.13.07c.44.23.48.49.07.79-.76-.38-1.51-.31-2.26.03-.5-.33-.41-.63.07-.89Z" fill="#70340b" stroke-width="0"/>
  <path d="M59.63,121.18c.05.61.09,1.22.14,1.83-.31,1.38-1.46.77-2.13.7-1.11-.11-.33-1.23-.63-1.83.05-.23.09-.47.14-.7.82-.34,1.65-.44,2.47,0Z" fill="#fcfbfb" stroke-width="0"/>
  <path d="M58.96,120.43c.23-.04.45-.08.68-.12.53.29.48.58,0,.87-.82,0-1.65,0-2.47,0,.33-.91,1.38-.07,1.8-.75Z" fill="#8c5c3a" stroke-width="0"/>
</svg>